<?xml version="1.0" encoding="UTF-8"?>
<svg version="1.1" xmlns="http://www.w3.org/2000/svg" width="1217" height="1656">
<path d="M0 0 C294.69 0 589.38 0 893 0 C893.08075728 241.31174032 893.08075728 241.31174032 893.09632993 333.74842381 C893.10053609 358.65256641 893.10485483 383.55670898 893.10945851 408.46085151 C893.1098623 410.65143243 893.11026266 412.84201336 893.11066218 415.03259428 C893.11678977 448.56026413 893.12458721 482.08793253 893.1373291 515.61560059 C893.1376029 516.33612867 893.1378767 517.05665676 893.13815879 517.79901903 C893.14258331 529.41542423 893.14715062 541.03182937 893.15173688 552.6482345 C893.16495104 586.12346744 893.17710238 619.59869926 893.18227959 653.07393456 C893.18244019 654.10740796 893.18244019 654.10740796 893.18260404 655.16175961 C893.18493604 670.28977558 893.18672553 685.41779156 893.18800197 700.54580765 C893.18852518 706.63362046 893.18912642 712.72143326 893.18975449 718.80924606 C893.18982134 719.47551376 893.18988819 720.14178146 893.18995707 720.8282391 C893.19221447 742.92702177 893.20142519 765.02579538 893.21366407 787.12457458 C893.22545046 808.67326757 893.22993297 830.22195233 893.22700275 851.77064843 C893.22548336 864.56795935 893.22952136 877.3652401 893.24159509 890.16254556 C893.24911676 898.72095203 893.24931194 907.27933885 893.24366363 915.8377467 C893.24065583 920.70789174 893.24072527 925.57797991 893.24976636 930.44811876 C893.33339702 978.28890723 893.33339702 978.28890723 888.8125 997.5625 C888.59819336 998.50391846 888.38388672 999.44533691 888.16308594 1000.4152832 C879.70304628 1036.2029262 862.55662982 1068.68723123 838 1096 C837.25089355 1096.83740723 836.50178711 1097.67481445 835.72998047 1098.53759766 C828.17594106 1106.88841201 820.25362651 1114.83210476 812.25 1122.75 C809.71050922 1125.26259075 807.1745833 1127.77870617 804.640625 1130.296875 C804.076922 1130.85227966 803.51321899 1131.40768433 802.93243408 1131.97991943 C800.11241818 1134.78282979 797.42013293 1137.64008615 794.83673096 1140.66326904 C790.85785898 1145.228615 786.62503869 1149.50116216 782.33007812 1153.76757812 C781.49173935 1154.60445663 780.65340057 1155.44133514 779.78965759 1156.30357361 C777.98148901 1158.10795689 776.17216677 1159.9111847 774.36180115 1161.71336365 C771.49209764 1164.57022718 768.62552426 1167.43019655 765.7598877 1170.2911377 C759.16020138 1176.87884083 752.55548521 1183.46149346 745.95070648 1190.04409027 C739.89165046 1196.08290197 733.83369453 1202.12280678 727.77979422 1208.16678762 C724.48203943 1211.45880348 721.1803973 1214.74688979 717.87805176 1218.03430176 C716.14185959 1219.76685929 714.40580885 1221.49955856 712.66992188 1223.23242188 C711.89257187 1224.00460556 711.11522186 1224.77678925 710.3143158 1225.57237244 C706.92886241 1228.95749958 703.63178183 1232.36707928 700.5057373 1235.9942627 C696.62507194 1240.49607928 692.45320442 1244.67213153 688.23828125 1248.859375 C687.3901889 1249.70600708 686.54209656 1250.55263916 685.66830444 1251.42492676 C683.36427422 1253.72418921 681.05806731 1256.02124166 678.75100327 1258.31745911 C676.32317123 1260.73522816 673.89864529 1263.15630749 671.47387695 1265.57714844 C664.79678489 1272.24225628 658.1146634 1278.90231428 651.43247986 1285.56231689 C645.30251094 1291.67204267 639.17364132 1297.78286085 633.04882717 1303.89775467 C630.64189825 1306.3005431 628.23391437 1308.70225382 625.82339478 1311.10144043 C623.13390597 1313.7789096 620.44751535 1316.45945287 617.76171875 1319.140625 C616.97501801 1319.92215942 616.18831726 1320.70369385 615.3777771 1321.50891113 C611.33977922 1325.54652431 607.50001137 1329.67655389 603.7729187 1334.00123596 C600.50898095 1337.68095427 597.00239817 1341.11901596 593.51367188 1344.58398438 C592.69484024 1345.40135574 591.87600861 1346.21872711 591.03236389 1347.06086731 C589.26675753 1348.82268919 587.49999758 1350.58335562 585.73219299 1352.3429718 C582.92969969 1355.13262134 580.13033332 1357.92538652 577.33190918 1360.71911621 C570.88703439 1367.15200999 564.43712886 1373.57985185 557.98715973 1380.00763702 C552.06992945 1385.90462051 546.15380092 1391.80269861 540.24172831 1397.70485353 C537.02168528 1400.91915937 533.79775484 1404.12953506 530.57312012 1407.3392334 C528.87737386 1409.03134491 527.18176909 1410.72359823 525.48632812 1412.41601562 C524.7276796 1413.16949783 523.96903107 1413.92298004 523.18739319 1414.69929504 C519.2090741 1418.67722173 515.43343461 1422.7541609 511.7602005 1427.01395416 C508.61613705 1430.5614217 505.24359425 1433.87814945 501.88085938 1437.21679688 C500.71113335 1438.3843325 500.71113335 1438.3843325 499.51777649 1439.57545471 C497.83729463 1441.25215386 496.15565932 1442.92769761 494.47297668 1444.60218811 C491.80489707 1447.25741578 489.14003111 1449.91583197 486.47595215 1452.57507324 C480.34051295 1458.69816102 474.20041635 1464.81656876 468.06006622 1470.93473053 C461.97700545 1476.99592336 455.89596652 1483.05913114 449.8183136 1489.12574768 C447.20201349 1491.73559931 444.58270301 1494.34240327 441.96325684 1496.94909668 C440.3484024 1498.56031614 438.73368957 1500.17167754 437.11914062 1501.78320312 C436.03727226 1502.85732201 436.03727226 1502.85732201 434.93354797 1503.95314026 C430.961478 1507.92479908 427.183484 1512.00306144 423.51480293 1516.25641632 C421.78178207 1518.25117539 419.97819564 1520.1548804 418.1159668 1522.02929688 C417.44224533 1522.70939819 416.76852386 1523.38949951 416.0743866 1524.09020996 C415.37308121 1524.79262817 414.67177582 1525.49504639 413.94921875 1526.21875 C413.2092012 1526.96209595 412.46918365 1527.70544189 411.70674133 1528.47131348 C410.15760633 1530.02547226 408.60714976 1531.5783148 407.05541992 1533.12988281 C404.67143184 1535.51608307 402.29558529 1537.91020259 399.91992188 1540.3046875 C398.40934283 1541.81819621 396.89829223 1543.33123446 395.38671875 1544.84375 C394.67529221 1545.56236206 393.96386566 1546.28097412 393.23088074 1547.0213623 C392.57292007 1547.67624634 391.91495941 1548.33113037 391.23706055 1549.00585938 C390.36938301 1549.87567444 390.36938301 1549.87567444 389.48417664 1550.76306152 C388 1552 388 1552 386 1552 C386 1207.15 386 862.3 386 507 C258.62 507 131.24 507 0 507 C0 339.69 0 172.38 0 0 Z M69 68 C69 190.43 69 312.86 69 439 C196.05 439 323.1 439 454 439 C454 751.18 454 1063.36 454 1385 C457.16737698 1383.41631151 458.63490142 1382.61498823 460.97749329 1380.26974487 C461.53662415 1379.7148085 462.095755 1379.15987213 462.67182922 1378.58811951 C463.27295029 1377.98137894 463.87407135 1377.37463837 464.4934082 1376.74951172 C465.45765213 1375.78811531 465.45765213 1375.78811531 466.44137573 1374.80729675 C468.56609521 1372.68628255 470.68352452 1370.55814927 472.80078125 1368.4296875 C474.2800864 1366.94918959 475.75976212 1365.46906187 477.23979187 1363.98928833 C480.34387736 1360.88363805 483.44457372 1357.7746563 486.54272461 1354.66308594 C490.49843314 1350.69045448 494.46062468 1346.72436975 498.4251833 1342.76057243 C501.48396187 1339.70152067 504.54011716 1336.63985934 507.59541893 1333.57733536 C509.05435274 1332.11523573 510.51387856 1330.65372657 511.97402382 1329.19283676 C514.02466977 1327.14000115 516.07197717 1325.08389183 518.1184082 1323.02685547 C518.71345657 1322.43226028 519.30850494 1321.8376651 519.92158508 1321.22505188 C522.85769504 1318.26687942 525.67781012 1315.25439982 528.39970398 1312.09732056 C532.23404584 1307.66897217 536.33167604 1303.54237494 540.48632812 1299.41601562 C541.30515976 1298.59864426 542.12399139 1297.78127289 542.96763611 1296.93913269 C544.73324247 1295.17731081 546.50000242 1293.41664438 548.26780701 1291.6570282 C551.07030031 1288.86737866 553.86966668 1286.07461348 556.66809082 1283.28088379 C563.11296561 1276.84799001 569.56287114 1270.42014815 576.01284027 1263.99236298 C581.93007055 1258.09537949 587.84619908 1252.19730139 593.75827169 1246.29514647 C596.97831472 1243.08084063 600.20224516 1239.87046494 603.42687988 1236.6607666 C605.12262614 1234.96865509 606.81823091 1233.27640177 608.51367188 1231.58398438 C609.2723204 1230.83050217 610.03096893 1230.07701996 610.81260681 1229.30070496 C614.15768955 1225.95595216 617.41021821 1222.58301475 620.5 1219 C624.29528072 1214.59886499 628.36445771 1210.50981652 632.48632812 1206.41601562 C633.30515976 1205.59864426 634.12399139 1204.78127289 634.96763611 1203.93913269 C636.73324247 1202.17731081 638.50000242 1200.41664438 640.26780701 1198.6570282 C643.07030031 1195.86737866 645.86966668 1193.07461348 648.66809082 1190.28088379 C655.11296561 1183.84799001 661.56287114 1177.42014815 668.01284027 1170.99236298 C673.93007055 1165.09537949 679.84619908 1159.19730139 685.75827169 1153.29514647 C688.97831472 1150.08084063 692.20224516 1146.87046494 695.42687988 1143.6607666 C697.12262614 1141.96865509 698.81823091 1140.27640177 700.51367188 1138.58398438 C701.2723204 1137.83050217 702.03096893 1137.07701996 702.81260681 1136.30070496 C706.81718553 1132.29652123 710.62277822 1128.19314553 714.3201561 1123.90471077 C717.01876148 1120.84486531 719.90180527 1117.9831284 722.80224609 1115.1159668 C723.44230087 1114.47897858 724.08235565 1113.84199036 724.74180603 1113.18569946 C726.11782293 1111.81677889 727.49496819 1110.44899173 728.87314987 1109.0822506 C731.06330702 1106.90966918 733.24974381 1104.73340497 735.43521118 1102.55610657 C741.64489013 1096.37071466 747.8601849 1090.19098935 754.08007812 1084.01586914 C757.89855236 1080.22436838 761.711984 1076.42785398 765.52248001 1072.62833595 C766.964476 1071.19249437 768.40835921 1069.75854523 769.85425949 1068.32663536 C777.71557738 1060.5407116 785.22438867 1052.76748357 792 1044 C792.4586998 1043.42692108 792.9173996 1042.85384216 793.38999939 1042.26339722 C799.47127889 1034.66221195 804.50126622 1026.60426205 809 1018 C809.31211426 1017.40316406 809.62422852 1016.80632813 809.94580078 1016.19140625 C822.38181496 991.98315258 825.17310301 966.21524827 825.12584114 939.33849621 C825.12688701 937.81231487 825.12837027 936.28613378 825.13024551 934.75995323 C825.13411318 930.59236472 825.13182359 926.42479961 825.12846755 922.25721151 C825.12591892 917.71337694 825.12919546 913.16954581 825.13171089 908.62571174 C825.13531509 900.67100392 825.13521762 892.7163029 825.13266373 884.76159477 C825.1288765 872.93321644 825.13081739 861.10484382 825.13387203 849.27646552 C825.13913423 828.15294872 825.13868295 807.02943495 825.13579312 785.90591786 C825.13327767 767.42849236 825.13262083 748.95106798 825.13381577 730.47364235 C825.13389215 729.24804679 825.13396854 728.02245124 825.13404724 726.75971642 C825.13435857 721.78478028 825.13467697 716.80984415 825.135007 711.83490801 C825.13806518 665.18001565 825.13529338 618.52512521 825.1299101 571.87023315 C825.12516072 530.39338682 825.12558991 488.91654357 825.13037109 447.43969727 C825.13572078 400.85056013 825.13785216 354.26142469 825.13475883 307.67228729 C825.1344381 302.71044242 825.13412526 297.74859756 825.13381577 292.7867527 C825.13373669 291.56499688 825.13365761 290.34324105 825.13357614 289.08446233 C825.132437 270.60676539 825.13377195 252.12906968 825.13629532 233.65137291 C825.1391478 212.65892715 825.13845408 191.66648489 825.13301457 170.67403957 C825.1300683 158.91447286 825.12990099 147.15491373 825.13366075 135.39534722 C825.13589197 127.55472881 825.13452794 119.71411651 825.13015598 111.87349902 C825.12776221 107.39719573 825.12699468 102.92090756 825.13056196 98.44460472 C825.1337678 94.38073577 825.13245568 90.3168955 825.1273813 86.25302869 C825.12636569 84.78420195 825.12706209 83.31537289 825.12958724 81.84654797 C825.13275275 79.86629497 825.12925517 77.88603456 825.12534916 75.90578288 C825.1252814 74.80510812 825.12521365 73.70443335 825.12514383 72.57040481 C825.1736907 70.0113901 825.1736907 70.0113901 824 68 C574.85 68 325.7 68 69 68 Z " fill="#EAA200" transform="translate(0,104)"/>
<path d="M0 0 C0.29115094 45.63096958 0.56178329 91.26203298 0.71983337 136.89367676 C0.72218034 137.5695516 0.72452731 138.24542645 0.7269454 138.94178235 C0.7778305 153.63205232 0.82492278 168.32233217 0.8681106 183.01262674 C0.88931444 190.21724162 0.91135597 197.42185384 0.93383789 204.62646484 C0.93606079 205.34339203 0.9382837 206.06031922 0.94057396 206.79897148 C1.01295576 230.01688287 1.14060064 253.23408871 1.29705275 276.45157305 C1.45759926 300.32014328 1.56209653 324.18832341 1.59655483 348.05742445 C1.60145312 351.43242356 1.60698893 354.80742136 1.61291313 358.18241882 C1.61405932 358.84663544 1.61520551 359.51085205 1.61638644 360.19519644 C1.63767508 371.52488745 1.72805885 382.85302858 1.83457994 394.18224359 C1.92454886 404.26560253 1.95157862 414.34791651 1.92952342 424.43164754 C1.91864917 430.24753371 1.93512708 436.05988446 2.02649307 441.87513924 C2.60340936 480.45736538 2.60340936 480.45736538 -5.95912129 489.57759523 C-8.81947034 492.01065683 -11.7294084 494.0154737 -15.0104562 495.83661366 C-17.88645316 497.51835376 -19.95321285 499.61285225 -22.2734375 501.9921875 C-22.97210937 502.65347656 -23.67078125 503.31476563 -24.390625 503.99609375 C-25.76968116 505.30185362 -27.14717324 506.60926656 -28.5234375 507.91796875 C-29.2040625 508.56121094 -29.8846875 509.20445312 -30.5859375 509.8671875 C-31.1742334 510.42519043 -31.7625293 510.98319336 -32.36865234 511.55810547 C-34 513 -34 513 -37 515 C-37.33 455.6 -37.66 396.2 -38 335 C-92.95765545 378.75036934 -92.95765545 378.75036934 -143.15625 427.9375 C-144.21289384 429.12519485 -144.21289384 429.12519485 -145.29088402 430.33688354 C-177.18854146 466.4950192 -181.73977943 501.18838273 -178.83702183 548.1580143 C-178.42671528 554.25583691 -177.94253336 560.34687839 -177.4375 566.4375 C-177.35493249 567.44184051 -177.27236499 568.44618101 -177.18729544 569.48095608 C-176.85443667 573.52102909 -176.51900537 577.56087857 -176.18042189 581.60047591 C-175.28392732 592.31926767 -174.46686648 603.0413903 -173.74609375 613.7734375 C-173.6806898 614.70501537 -173.61528585 615.63659324 -173.54789996 616.59640074 C-171.64085654 644.39345844 -173.28297966 663.76103431 -191.95306206 685.61994362 C-207.05737608 702.33567526 -226.04362002 716.56583471 -246 727 C-246.33 727 -246.66 727 -247 727 C-248.22035807 682.05443188 -249.35003384 637.10694346 -250.00636292 592.14918518 C-250.01616497 591.47949374 -250.02596702 590.80980229 -250.0360661 590.11981717 C-250.24876419 575.55134368 -250.44541768 560.98269465 -250.62563839 546.41378411 C-250.7141678 539.26499373 -250.80622746 532.11625076 -250.90014648 524.9675293 C-250.90943038 524.25629901 -250.91871427 523.54506873 -250.92827949 522.81228601 C-251.22869349 499.92386672 -251.76021573 477.04822683 -252.41710267 454.16749274 C-253.09322301 430.5728875 -253.52527847 406.98528775 -253.6679643 383.38116391 C-253.68841105 380.01676233 -253.71153088 376.65238405 -253.73628426 373.28801155 C-253.74107129 372.62612005 -253.74585832 371.96422855 -253.75079042 371.28227974 C-253.82837187 361.43583271 -254.1109135 351.609626 -254.50683403 341.77126884 C-258.02638754 251.79204503 -258.02638754 251.79204503 -226.06880361 217.02771646 C-211.03969945 201.21545004 -194.14534801 186.17907075 -176 174 C-175.34 174 -174.68 174 -174 174 C-173.67 230.43 -173.34 286.86 -173 345 C-149.46728185 321.99838611 -149.46728185 321.99838611 -127 298 C-124.04551055 295.77741958 -121.12947573 293.71054377 -118.05126953 291.68310547 C-105.51124324 283.10197822 -93.64691694 273.76766389 -82.125 263.875 C-81.59909775 263.42498501 -81.0731955 262.97497002 -80.53135681 262.51131821 C-54.82010472 240.40114686 -36.55185605 217.44432246 -33.76883507 182.72390175 C-31.86071468 154.52013654 -33.2802806 126.26416285 -35.51045823 98.12884116 C-36.09376361 90.70540253 -36.62837643 83.27863009 -37.12945414 75.84921026 C-37.25120922 74.05795651 -37.37657065 72.26694414 -37.50558615 70.47619867 C-40.06649369 34.42755587 -40.06649369 34.42755587 -27.81117249 19.98378754 C-20.81942573 12.63929978 -12.7917925 6.96838652 -4 2 C-1 0 -1 0 0 0 Z " fill="#47455A" transform="translate(1217,349)"/>
<path d="M0 0 C0.75652548 31.03049054 1.33867357 62.05849442 1.68515587 93.09604716 C1.72641804 96.77880891 1.76913175 100.46155248 1.81274414 104.14428711 C1.82140038 104.87730333 1.83005663 105.61031955 1.83897518 106.36554838 C1.98170657 118.16047468 2.24136341 129.94997071 2.54604227 141.74169891 C2.85715393 153.88576031 3.03844626 166.02702581 3.10492033 178.17490679 C3.14574865 184.98250268 3.24273412 191.77879506 3.48909187 198.58231926 C5.07767551 244.80655148 5.07767551 244.80655148 -9.59861976 261.26251823 C-17.593304 269.59636439 -26.61173893 277.80586946 -37 283 C-37.33 231.52 -37.66 180.04 -38 127 C-43.94 150.43 -49.88 173.86 -56 198 C-59.46947862 211.46472092 -62.94049539 224.92837428 -66.44616699 238.38360596 C-67.72026983 243.27548962 -68.99181558 248.1680388 -70.26296043 253.06069183 C-71.30109486 257.05631271 -72.34047039 261.05159856 -73.38320923 265.04602051 C-75.24755637 272.19553211 -77.09517128 279.34830093 -78.8876543 286.51621628 C-79.70375707 289.77964496 -80.52592685 293.0415352 -81.34795952 296.30347443 C-81.73433828 297.84543578 -82.11734394 299.3882468 -82.49675179 300.93193817 C-83.01884065 303.05605866 -83.55208398 305.17709499 -84.08764648 307.29785156 C-84.53478249 309.10071625 -84.53478249 309.10071625 -84.99095154 310.94000244 C-85.96266924 313.88679232 -86.86906674 315.76200496 -89 318 C-89.66 318 -90.32 318 -91 318 C-101.27622899 298.50933429 -111.13243273 278.81457204 -120.93920898 259.08447266 C-125.77966024 249.35776578 -130.66194848 239.66671212 -135.77698898 230.08138275 C-140.27574307 221.58508083 -144.54142191 212.97216145 -148.83105469 204.36914062 C-149.62583186 202.77707311 -150.42070216 201.18505207 -151.21566772 199.59307861 C-153.14485192 195.72925386 -155.07277679 191.86480321 -157 188 C-156.88605392 189.56359379 -156.88605392 189.56359379 -156.76980591 191.15877533 C-154.36352965 224.57691214 -152.82925708 258.00586239 -152 291.5 C-151.9677961 292.75856277 -151.93559219 294.01712553 -151.90241241 295.31382656 C-149.05222999 410.35689011 -149.05222999 410.35689011 -184.9544735 448.27886939 C-190.31265788 453.77342944 -196.07266054 458.75867845 -202 463.625 C-202.78644772 464.27480646 -202.78644772 464.27480646 -203.58878326 464.93774033 C-238.87564271 494 -238.87564271 494 -247 494 C-247 347.48 -247 200.96 -247 50 C-145 29 -145 29 -142 30 C-140.63201277 32.74232467 -139.45496308 35.42147038 -138.32421875 38.26171875 C-137.96661972 39.13430832 -137.60902069 40.00689789 -137.24058533 40.90592957 C-136.04570992 43.82895444 -134.86671873 46.75812753 -133.6875 49.6875 C-132.84849732 51.74861854 -132.00847111 53.80932071 -131.16748047 55.86962891 C-129.37263001 60.27212087 -127.5844654 64.67724745 -125.80126953 69.08447266 C-122.98416612 76.04503535 -120.14809606 82.9977689 -117.30859375 89.94921875 C-111.85955797 103.29426813 -106.42740126 116.64613985 -101 130 C-100.25522734 131.83203898 -99.51043659 133.6640706 -98.765625 135.49609375 C-95.17450133 144.32968172 -91.58538066 153.16407925 -88 162 C-81.5677432 140.59659527 -75.82382896 119.01045822 -70.03503418 97.42657471 C-67.71937918 88.79390936 -65.39922879 80.16245165 -63.078125 71.53125 C-62.82711533 70.59747528 -62.57610565 69.66370056 -62.31748962 68.70162964 C-56.9601987 48.77853341 -51.49648095 28.88509052 -46 9 C-43.47649713 8.36287699 -40.95260337 7.72737699 -38.4284668 7.09277344 C-37.72278313 6.91442963 -37.01709946 6.73608582 -36.29003143 6.55233765 C-29.83376055 4.93144653 -23.34242687 3.54216972 -16.8125 2.25 C-15.73419922 2.02957031 -14.65589844 1.80914062 -13.54492188 1.58203125 C-12.50529297 1.37449219 -11.46566406 1.16695313 -10.39453125 0.953125 C-9.01551636 0.67710449 -9.01551636 0.67710449 -7.60864258 0.39550781 C-5.02531133 0.00383756 -2.60770837 -0.02758309 0 0 Z " fill="#008584" transform="translate(1215,63)"/>
<path d="M0 0 C4.46070259 0.03141135 8.92123156 0.00947698 13.3819773 -0.00519741 C21.17221256 -0.02371349 28.96182428 -0.00932396 36.75198642 0.02754646 C48.33524751 0.08221571 59.91812157 0.08453625 71.50148817 0.07666856 C90.99322875 0.06488543 110.48469327 0.09475556 129.97635356 0.14882523 C149.25999915 0.20218007 168.54352962 0.23673917 187.82724849 0.24650055 C189.02874153 0.24711921 190.23023456 0.24773786 191.46813648 0.24837527 C197.57055347 0.2514205 203.67297057 0.25413287 209.77538778 0.25671715 C252.93635518 0.27559293 296.09717261 0.3361509 339.25805561 0.42144066 C381.17373763 0.50417385 423.08937854 0.56789038 465.00512592 0.60601097 C466.29841524 0.60719471 467.59170457 0.60837844 468.92418448 0.60959805 C481.91258558 0.62146529 494.90098699 0.63294754 507.88938868 0.64414778 C534.34543516 0.66697029 560.80147896 0.69236156 587.25752155 0.71930748 C588.4737791 0.72054309 589.69003666 0.7217787 590.94315051 0.72305175 C672.08602299 0.80578002 753.22881239 0.94837766 834.371581 1.10039574 C831.51115377 2.57742081 829.00733507 3.52708223 825.84731952 4.17319542 C824.94060504 4.36147407 824.03389057 4.54975273 823.09969989 4.7437368 C822.10870288 4.94353142 821.11770587 5.14332603 820.09667865 5.34917503 C819.04383686 5.56611519 817.99099506 5.78305534 816.90624897 6.00656944 C813.36710062 6.7344905 809.82637061 7.45441527 806.2856435 8.17461449 C803.72981573 8.6990333 801.17410351 9.22401552 798.61849872 9.74951988 C792.47485412 11.01201072 786.3301126 12.26907236 780.18490247 13.52391851 C775.55073899 14.4702463 770.91684357 15.4178717 766.28320209 16.36675316 C764.50228211 16.73137278 764.50228211 16.73137278 762.68538395 17.10335844 C760.11314839 17.63040215 757.54142178 18.15974576 754.96994654 18.69050306 C748.76136201 19.970414 742.55185667 21.24028479 736.32989337 22.4536654 C720.24814378 25.59476798 704.32991761 29.0175405 688.51545886 33.32085168 C628.95861265 49.49897228 571.65514488 54.44359412 510.19042865 54.71147972 C508.76805442 54.71769548 508.76805442 54.71769548 507.31694535 54.72403681 C482.15190847 54.82500561 456.9892018 54.68388263 431.82503746 54.48177199 C416.87696415 54.36372704 401.92945064 54.30417988 386.98093692 54.28257233 C385.90576145 54.28099131 384.83058597 54.2794103 383.72282942 54.27778138 C378.25854056 54.26999553 372.79425096 54.26306526 367.32996055 54.25646323 C329.01740231 54.20865269 290.70596964 54.05512418 252.39404193 53.83550316 C215.26552038 53.62291772 178.13731131 53.46066247 141.00829975 53.36382347 C139.27971506 53.35928582 139.27971506 53.35928582 137.51620948 53.3546565 C125.93931455 53.32432034 114.36241728 53.29497814 102.78551798 53.26636273 C79.21973756 53.20809103 55.6539769 53.14320242 32.08822528 53.07428795 C31.00564033 53.07113028 29.92305538 53.06797261 28.80766482 53.06471925 C-43.00482962 52.85450154 -114.81670235 52.49024126 -186.628419 52.10039574 C-183.5258027 50.03198487 -180.91513215 49.08343747 -177.38012799 47.92412621 C-176.74699122 47.71512908 -176.11385445 47.50613195 -175.46153172 47.29080158 C-173.35062199 46.59529238 -171.23761446 45.90640137 -169.12451275 45.21758324 C-167.62799201 44.72621397 -166.13159038 44.23448179 -164.63530072 43.74240929 C-160.61443954 42.42153023 -156.59164574 41.10663266 -152.56839856 39.79304176 C-149.23149421 38.70276049 -145.8957275 37.609021 -142.5599223 36.51538235 C-120.76323237 29.37062324 -98.94541283 22.29352047 -77.07934674 15.36357933 C-76.22883553 15.09289826 -75.37832433 14.82221718 -74.50204006 14.54333365 C-72.70857953 13.97523199 -70.91346445 13.41229839 -69.11597482 12.85707661 C-64.30070622 11.35138655 -59.59630369 9.71985049 -54.91982629 7.82446491 C-36.39134694 0.56162334 -19.66292951 -0.1837931 0 0 Z " fill="#EAA200" transform="translate(354.6284190034494,-1.100395736284554)"/>
</svg>
