<?xml version="1.0" encoding="UTF-8"?>
<svg version="1.1" xmlns="http://www.w3.org/2000/svg" width="5223" height="1732">
<path d="M0 0 C292.05 0 584.1 0 885 0 C885.08075728 241.06049544 885.08075728 241.06049544 885.09632993 333.40111256 C885.10053609 358.27937104 885.10485483 383.15762951 885.10945851 408.03588793 C885.1098623 410.22419188 885.11026266 412.41249584 885.11066218 414.6007998 C885.11678977 448.09358849 885.12458719 481.58637571 885.1373291 515.0791626 C885.1376029 515.79894012 885.1378767 516.51871765 885.13815879 517.26030662 C885.14258331 528.86460996 885.14715062 540.46891324 885.15173688 552.07321651 C885.16495105 585.51360794 885.17710239 618.95399824 885.18227959 652.39439201 C885.18244019 653.42679152 885.18244019 653.42679152 885.18260404 654.48004757 C885.18493604 669.59235005 885.18672553 684.70465254 885.18800197 699.81695513 C885.18852518 705.89844612 885.18912642 711.9799371 885.18975449 718.06142807 C885.18982134 718.72700386 885.18988819 719.39257965 885.18995707 720.0783244 C885.19221446 742.15409286 885.20142516 764.22985225 885.21366407 786.30561723 C885.22545051 807.83190608 885.22993296 829.35818669 885.22700275 850.88447864 C885.22548337 863.66845886 885.22952129 876.45240888 885.24159509 889.23638364 C885.24911683 897.78590424 885.24931189 906.33540516 885.24366363 914.88492715 C885.24065587 919.749997 885.24072512 924.61500993 885.24976636 929.48007359 C885.34872716 986.1244354 876.34943459 1039.95777794 839 1085 C838.50822266 1085.59329102 838.01644531 1086.18658203 837.50976562 1086.79785156 C832.3484651 1092.98558387 827.17523809 1099.13329543 821.3046875 1104.66796875 C819.75188784 1106.17073632 819.75188784 1106.17073632 818 1109 C817.34 1109 816.68 1109 816 1109 C815.73271434 1109.59246395 815.46542868 1110.1849279 815.19004345 1110.79534531 C813.98106082 1113.0350864 812.75733402 1114.48686779 810.95930481 1116.2744751 C810.33561005 1116.89947403 809.71191528 1117.52447296 809.06932068 1118.16841125 C808.38620316 1118.84276718 807.70308563 1119.51712311 806.99926758 1120.21191406 C806.27870178 1120.93116562 805.55813599 1121.65041718 804.81573486 1122.39146423 C802.42989282 1124.77081022 800.03715694 1127.14310233 797.64453125 1129.515625 C795.98213216 1131.17175137 794.32024873 1132.82839548 792.65885925 1134.48553467 C788.27797062 1138.85310914 783.89156088 1143.21509293 779.50354004 1147.57550049 C772.49681524 1154.53915833 765.49667679 1161.5094197 758.49991417 1168.48308563 C756.06124776 1170.91158245 753.61916443 1173.33660326 751.17671204 1175.7612915 C749.66692426 1177.26424429 748.15724944 1178.76731054 746.64770508 1180.27050781 C745.63821053 1181.26989632 745.63821053 1181.26989632 744.60832214 1182.28947449 C741.46789402 1185.42243968 738.43884656 1188.59857891 735.54093933 1191.95806885 C731.78582131 1196.30576121 727.77223746 1200.3538703 723.69726562 1204.40039062 C722.49827888 1205.59718697 722.49827888 1205.59718697 721.27507019 1206.81816101 C719.55202607 1208.53742151 717.82782843 1210.25552659 716.10258484 1211.97257996 C713.36729749 1214.69501955 710.63521982 1217.42064431 707.90393066 1220.14709473 C701.61367991 1226.42499174 695.31877283 1232.69821002 689.02361298 1238.97118378 C682.78749181 1245.18544023 676.55339316 1251.40170643 670.32267761 1257.62138367 C667.63989934 1260.29771162 664.95411109 1262.97099327 662.26818848 1265.64416504 C660.61288813 1267.29583053 658.95772933 1268.94763789 657.30273438 1270.59960938 C656.56278732 1271.33439011 655.82284027 1272.06917084 655.06047058 1272.82621765 C651.75766556 1276.12868904 648.55137613 1279.46286398 645.5 1283 C641.76021963 1287.33512988 637.75836504 1291.36764586 633.69726562 1295.40039062 C632.49827888 1296.59718697 632.49827888 1296.59718697 631.27507019 1297.81816101 C629.55202607 1299.53742151 627.82782843 1301.25552659 626.10258484 1302.97257996 C623.36729749 1305.69501955 620.63521982 1308.42064431 617.90393066 1311.14709473 C611.61367991 1317.42499174 605.31877283 1323.69821002 599.02361298 1329.97118378 C592.78749181 1336.18544023 586.55339316 1342.40170643 580.32267761 1348.62138367 C577.63989934 1351.29771162 574.95411109 1353.97099327 572.26818848 1356.64416504 C570.61288813 1358.29583053 568.95772933 1359.94763789 567.30273438 1361.59960938 C566.56278732 1362.33439011 565.82284027 1363.06917084 565.06047058 1363.82621765 C561.11772874 1367.76856122 557.37982795 1371.81435115 553.73865509 1376.03549957 C550.74671537 1379.41608201 547.54319693 1382.57899565 544.33984375 1385.7578125 C543.60879425 1386.48740173 542.87774475 1387.21699097 542.12454224 1387.96868896 C540.55046614 1389.53898485 538.97523677 1391.1081254 537.3989563 1392.6762085 C534.8988955 1395.16340587 532.40205928 1397.65380092 529.90600586 1400.14501953 C523.70869074 1406.32902554 517.50592986 1412.50755998 511.30334473 1418.6862793 C506.05240003 1423.91743969 500.80354389 1429.15067907 495.55740356 1434.38665771 C493.10729902 1436.8303188 490.65418307 1439.27092848 488.20092773 1441.71142578 C486.68718805 1443.22153015 485.17359015 1444.73177667 483.66015625 1446.2421875 C482.98566437 1446.91151306 482.31117249 1447.58083862 481.61624146 1448.27044678 C478.46153888 1451.42480131 475.416694 1454.623422 472.5 1458 C468.95480196 1462.10418017 465.18815626 1465.93897642 461.33984375 1469.7578125 C460.60879425 1470.48740173 459.87774475 1471.21699097 459.12454224 1471.96868896 C457.55046614 1473.53898485 455.97523677 1475.1081254 454.3989563 1476.6762085 C451.8988955 1479.16340587 449.40205928 1481.65380092 446.90600586 1484.14501953 C440.70869074 1490.32902554 434.50592986 1496.50755998 428.30334473 1502.6862793 C423.05240003 1507.91743969 417.80354389 1513.15067907 412.55740356 1518.38665771 C410.10729902 1520.8303188 407.65418307 1523.27092848 405.20092773 1525.71142578 C403.68718805 1527.22153015 402.17359015 1528.73177667 400.66015625 1530.2421875 C399.98566437 1530.91151306 399.31117249 1531.58083862 398.61624146 1532.27044678 C394.76515106 1536.1211123 391.11328817 1540.08009413 387.58543396 1544.22976685 C385.25743931 1546.82911403 382.79942598 1548.91670625 380 1551 C379.34 1551 378.68 1551 378 1551 C378 1206.48 378 861.96 378 507 C250.95 506.67 123.9 506.34 -7 506 C-7 432.18897949 -7 432.18897949 -6.50740111 400.97347617 C-6.43223695 396.13816241 -6.36286845 391.3027639 -6.2926178 386.46737671 C-6.15580728 377.10799495 -6.01411049 367.74869411 -5.87050039 358.38941447 C-5.70231191 347.41520246 -5.53935613 336.44091428 -5.37649148 325.46662219 C-5.08537264 305.8616404 -4.78976134 286.2567291 -4.49145508 266.65185547 C-4.20391282 247.75411836 -3.91962494 228.85633596 -3.63891602 209.95849609 C-3.62155945 208.7900495 -3.60420288 207.62160292 -3.58632035 206.41774885 C-3.56898995 205.25103681 -3.55165956 204.08432477 -3.533804 202.88225782 C-3.21096584 181.14956008 -2.88525927 159.41690615 -2.55813913 137.68427246 C-2.44378242 130.08309679 -2.33021786 122.48190953 -2.21690559 114.88071823 C-2.07855765 105.6043219 -1.93850462 96.32795289 -1.79648263 87.05161206 C-1.72443211 82.34380502 -1.65298142 77.63599146 -1.58345795 72.92814636 C-1.51929603 68.58512178 -1.45301142 64.24213405 -1.3853057 59.89916332 C-1.36168198 58.36340929 -1.33870495 56.82764507 -1.31661213 55.29186825 C-1.05035052 36.85644762 -0.48506 18.43228002 0 0 Z M61 68 C61 190.1 61 312.2 61 438 C185.50204083 469.12551021 317.66623377 439 446 439 C446 751.51 446 1064.02 446 1386 C449.37976556 1384.31011722 450.67478867 1383.5533287 453.04455566 1380.9342041 C453.61596031 1380.31147362 454.18736496 1379.68874313 454.7760849 1379.04714203 C455.38944954 1378.36965157 456.00281418 1377.6921611 456.63476562 1376.99414062 C464.36427365 1368.60678317 472.36111082 1360.52058676 480.44688416 1352.47795105 C482.91406735 1350.0238042 485.37787321 1347.56630767 487.84094238 1345.10803223 C493.05777109 1339.90248496 498.27858687 1334.70094833 503.5 1329.5 C509.58723675 1323.43648157 515.67276448 1317.37126694 521.75410461 1311.30183411 C524.16876577 1308.89360116 526.58644043 1306.4884228 529.00427246 1304.08337402 C530.49192918 1302.5993514 531.9794448 1301.11518732 533.46679688 1299.63085938 C534.1287204 1298.97410217 534.79064392 1298.31734497 535.47262573 1297.64068604 C538.58753078 1294.52613097 541.59055084 1291.36598557 544.46911621 1288.03088379 C548.13725812 1283.78570914 552.04713765 1279.82632119 556.02734375 1275.875 C556.79740753 1275.10639648 557.56747131 1274.33779297 558.36087036 1273.54589844 C560.02007108 1271.89047995 561.68042521 1270.23621686 563.34182739 1268.58300781 C565.97630318 1265.96138614 568.60756325 1263.33657422 571.23803711 1260.7109375 C577.29607016 1254.66525466 583.35876204 1248.62425169 589.42170715 1242.58349609 C595.42823831 1236.59883455 601.43274659 1230.61215675 607.43386841 1224.62207031 C610.01692943 1222.04545682 612.603001 1219.47189171 615.18920898 1216.8984375 C616.78384047 1215.30744106 618.37833031 1213.71630263 619.97265625 1212.125 C620.68455109 1211.41827148 621.39644592 1210.71154297 622.12991333 1209.98339844 C625.99957631 1206.11414102 629.65799752 1202.13464445 633.23290634 1197.992939 C636.33261954 1194.49706356 639.65252422 1191.2255522 642.96728516 1187.93505859 C643.73080795 1187.17299606 644.49433075 1186.41093353 645.2809906 1185.6257782 C646.92546242 1183.98508789 648.57108763 1182.34555294 650.21776199 1180.70707321 C652.82648227 1178.11120203 655.43199094 1175.51214495 658.03671265 1172.91226196 C663.56333505 1167.397023 669.09388009 1161.88572802 674.625 1156.375 C681.04442812 1149.97920594 687.46221974 1143.58178754 693.8758049 1137.18013382 C696.4379148 1134.6244877 699.00302651 1132.07188103 701.56826782 1129.51937866 C703.14282811 1127.94845181 704.71724766 1126.37738388 706.29150391 1124.80615234 C707.00123856 1124.10158401 707.71097321 1123.39701569 708.44221497 1122.6710968 C711.30457358 1119.80904324 714.1021117 1116.95659207 716.66928101 1113.82461548 C718.97459604 1111.03078724 721.40753131 1108.52700485 724 1106 C724.83433563 1105.16788498 725.66867126 1104.33576996 726.52828979 1103.47843933 C727.86562668 1102.14562675 727.86562668 1102.14562675 729.22998047 1100.78588867 C734.28478429 1095.74743266 739.33703808 1090.7064278 744.38784599 1085.66396618 C747.43383292 1082.62319539 750.48074847 1079.58336727 753.52978516 1076.5456543 C756.49444729 1073.59192604 759.45659792 1070.63569977 762.41708755 1067.67778969 C763.53800943 1066.55870009 764.65980355 1065.44048338 765.78252792 1064.32320213 C796.02805816 1034.21855344 817.11241479 998.4553666 817.26201695 954.63825527 C817.2568881 953.217496 817.25157432 951.79673739 817.24609566 950.37597942 C817.24757803 948.82935257 817.24993847 947.28272637 817.25308865 945.73610201 C817.25919023 941.50241042 817.25290706 937.26881581 817.24453239 933.03513148 C817.2376344 928.42317426 817.2424112 923.81122639 817.24568737 919.19926721 C817.24982696 911.12190344 817.24656077 903.04456919 817.23841095 894.96720886 C817.22632625 882.95652872 817.22574071 870.94586713 817.22749493 858.93518201 C817.23012111 838.72997255 817.22344603 818.52477619 817.21146011 798.31957054 C817.19962391 778.31543094 817.19192778 758.31129678 817.18975449 738.3071537 C817.18961701 737.06310791 817.18947953 735.81906212 817.18933788 734.53731797 C817.18866121 728.2193741 817.18805845 721.90143023 817.18748413 715.58348636 C817.18328391 670.83975226 817.16981242 626.09602472 817.15087891 581.35229492 C817.14629551 570.51108808 817.14174474 559.66988123 817.1373291 548.82867432 C817.1370552 548.15628396 817.1367813 547.4838936 817.13649911 546.79112777 C817.12380639 515.52205452 817.1163583 484.25298066 817.11025951 452.98390551 C817.10986338 450.95341005 817.109465 448.9229146 817.10906615 446.89241914 C817.10642655 433.43600108 817.10387725 419.979583 817.10138843 406.52316491 C817.09631766 379.11117173 817.09067358 351.69917867 817.08468628 324.28718567 C817.0844117 323.02684139 817.08413712 321.7664971 817.08385422 320.46796057 C817.06545455 236.31197075 817.03376435 152.15598488 817 68 C814.47773268 66.73886634 812.75644833 66.87485495 809.93205833 66.87465084 C808.85014646 66.87214732 807.76823459 66.8696438 806.65353751 66.86706442 C804.85257444 66.87057617 804.85257444 66.87057617 803.01522827 66.87415886 C801.74386276 66.87270542 800.47249726 66.87125198 799.16260552 66.86975449 C795.60625678 66.86583387 792.04993491 66.86820424 788.49358657 66.87153245 C784.63494584 66.87405545 780.77630943 66.8708147 776.9176693 66.86828911 C770.14584225 66.86466605 763.37402316 66.86479394 756.60219574 66.86733627 C746.53253259 66.87110649 736.4628762 66.86919142 726.39321309 66.86612797 C708.41262812 66.86085177 690.43204669 66.86132277 672.45146137 66.86420688 C656.71672501 66.86671849 640.98198994 66.86738098 625.24725342 66.86618423 C624.20514837 66.86610785 623.16304332 66.86603146 622.08935933 66.86595276 C617.85954006 66.86564145 613.6297208 66.86532305 609.39990153 66.864993 C569.68859995 66.86193125 529.97730064 66.86471181 490.26599941 66.8700899 C454.95402443 66.87483581 419.64205307 66.87441119 384.33007812 66.86962891 C344.69325772 66.86427891 305.05643932 66.86214836 265.41961861 66.86524117 C261.19732793 66.86556191 256.97503726 66.86587475 252.75274658 66.86618423 C251.19319461 66.86630285 251.19319461 66.86630285 249.60213654 66.86642386 C233.87397834 66.86756325 218.14582158 66.8662275 202.41766357 66.86370468 C184.54120529 66.86085164 166.66475113 66.86154694 148.78829336 66.86698543 C138.77289398 66.86993153 128.7575035 66.87009931 118.74210434 66.86633925 C112.06363794 66.86410764 105.38517872 66.86547278 98.70671339 66.86984402 C94.89394855 66.87223736 91.08120146 66.87300621 87.26843715 66.86943804 C83.17386697 66.86564495 79.07934096 66.8694779 74.98477173 66.87415886 C73.78412968 66.87181769 72.58348763 66.86947653 71.34646249 66.86706442 C69.72359468 66.87081969 69.72359468 66.87081969 68.06794167 66.87465084 C66.66151167 66.87475247 66.66151167 66.87475247 65.22666895 66.87485617 C62.96036523 66.85468433 62.96036523 66.85468433 61 68 Z " fill="#47455A" transform="translate(7,105)"/>
<path d="M0 0 C34.98 0 69.96 0 106 0 C109.34125 9.735 112.6825 19.47 116.125 29.5 C124.07770609 52.66860354 132.03529006 75.83552055 140 99 C145.57614787 115.21764138 151.15081039 131.43578837 156.71875 147.65625 C156.95708998 148.35054108 157.19542995 149.04483215 157.44099236 149.76016235 C159.83970749 156.7477318 162.23800358 163.73544426 164.63442516 170.72380066 C165.81982645 174.18053933 167.00552712 177.63717524 168.19140625 181.09375 C168.42639391 181.77869537 168.66138157 182.46364075 168.90349007 183.16934204 C172.43733167 193.46778211 175.98798936 203.76033384 179.54684067 214.05015564 C181.09824906 218.53727759 182.64732843 223.02520424 184.19640923 227.51313019 C185.67337979 231.79109801 187.15441337 236.0676311 188.63846493 240.34314728 C189.32966493 242.33677941 190.01877127 244.33111999 190.70692444 246.32580566 C191.54534605 248.75599483 192.3871546 251.18501904 193.2328949 253.6126709 C193.60004105 254.68021606 193.96718719 255.74776123 194.34545898 256.84765625 C194.66691391 257.77586182 194.98836884 258.70406738 195.31956482 259.66040039 C196 262 196 262 196 265 C196.66 265 197.32 265 198 265 C198.25401077 264.01521919 198.25401077 264.01521919 198.51315308 263.01054382 C200.38563124 255.93025769 202.62298153 249.04483984 205.0703125 242.14453125 C205.46355209 241.02602783 205.85679169 239.90752441 206.26194763 238.75512695 C207.54589922 235.10625751 208.83537929 231.45936924 210.125 227.8125 C211.030593 225.24398948 211.93504702 222.67507824 212.83959961 220.10620117 C215.55359006 212.40195989 218.2758464 204.70065263 221 197 C221.38919617 195.89962402 221.77839233 194.79924805 222.17938232 193.66552734 C225.32711588 184.76704402 228.47790196 175.86964514 231.63330078 166.97387695 C236.94698253 151.99126993 242.22816122 136.99737597 247.5 122 C255.93974467 97.99371963 264.41922023 74.00174306 272.9286499 50.02008057 C274.04489978 46.87342983 275.16046545 43.72653717 276.27587891 40.57958984 C278.15714934 35.27210226 280.03979541 29.96510461 281.92349243 24.65847778 C282.63628901 22.64989683 283.34867675 20.64117074 284.06063843 18.6322937 C285.03919853 15.87161254 286.01937883 13.1115121 287 10.3515625 C287.29078934 9.53012253 287.58157867 8.70868256 287.88117981 7.86235046 C289.8857691 2.22846179 289.8857691 2.22846179 291 0 C321.69 0 352.38 0 384 0 C384 126.06 384 252.12 384 382 C359.91 382 335.82 382 311 382 C309.40052079 380.40052079 309.86826498 378.72075653 309.8613348 376.5040884 C309.85586036 375.52674659 309.85038591 374.54940478 309.84474558 373.54244655 C309.84327842 371.91261753 309.84327842 371.91261753 309.84178162 370.24986267 C309.83684364 369.10561359 309.83190566 367.9613645 309.82681805 366.7824412 C309.8140613 363.59225795 309.80580389 360.40209844 309.79939139 357.21189725 C309.79140978 353.77696875 309.77770436 350.34206268 309.76467896 346.90715027 C309.7428843 340.95124448 309.7247508 334.99533646 309.70907402 329.03941154 C309.68640253 320.42804711 309.65825599 311.81670749 309.62875474 303.20536406 C309.58104538 289.23547174 309.5377903 275.2655693 309.49731445 261.2956543 C309.45797651 247.72175305 309.4165544 234.14786081 309.37231445 220.57397461 C309.36959018 219.73787857 309.36686591 218.90178253 309.36405908 218.04035025 C309.35037989 213.84608082 309.33665956 209.65181153 309.32291877 205.4575423 C309.20890148 170.63838019 309.10210378 135.81919901 309 101 C308.58259048 102.19884323 308.16518097 103.39768646 307.73512268 104.63285828 C306.15056516 109.1832426 304.56504261 113.73329023 302.97926331 118.2832489 C302.29974956 120.23333556 301.62047988 122.18350728 300.94148254 124.1337738 C296.32940053 137.38024391 291.66679816 150.60741914 286.9375 163.8125 C286.55284451 164.88759827 286.16818901 165.96269653 285.77187729 167.07037354 C284.91895668 169.45342644 284.06497288 171.83609642 283.2109375 174.21875 C278.37231022 187.73281893 273.57685793 201.26222257 268.77938461 214.79093933 C266.87763056 220.15374267 264.97551021 225.51641611 263.0734539 230.87911224 C262.60569838 232.19792118 262.13795163 233.51673322 261.6702137 234.8355484 C257.32751676 247.07989634 252.97841652 259.32195953 248.625 271.5625 C248.30904877 272.45091583 247.99309753 273.33933167 247.66757202 274.25466919 C245.77510295 279.57596565 243.88235931 284.89716441 241.98950195 290.21832275 C239.133215 298.24788592 236.27719142 306.27754271 233.42156982 314.30734253 C232.41484083 317.13797889 231.40786908 319.96852881 230.40087891 322.79907227 C229.93051712 324.12171837 229.93051712 324.12171837 229.45065308 325.47108459 C228.8405588 327.18647901 228.2301547 328.90176327 227.61941528 330.6169281 C226.14849418 334.751522 224.68707862 338.88909361 223.24316406 343.03320312 C222.96598541 343.82652039 222.68880676 344.61983765 222.40322876 345.43719482 C221.88152473 346.93214129 221.36217308 348.42791146 220.84555054 349.92462158 C219.11137028 354.88862972 219.11137028 354.88862972 218 356 C215.97505769 356.09409479 213.9468013 356.11743122 211.91967773 356.11352539 C209.96776772 356.11341209 209.96776772 356.11341209 207.97642517 356.11329651 C206.54548098 356.10818909 205.11453718 356.10297308 203.68359375 356.09765625 C202.2277074 356.09579203 200.77182043 356.09436815 199.31593323 356.09336853 C195.47720621 356.08954365 191.63851681 356.07971364 187.79980469 356.06866455 C183.88542184 356.05844978 179.97103294 356.05387077 176.05664062 356.04882812 C168.37107657 356.03809134 160.68554355 356.02101529 153 356 C152.79527573 355.39391403 152.59055145 354.78782806 152.37962341 354.16337585 C139.55605224 316.18732464 139.55605224 316.18732464 126.4375 278.3125 C120.45861555 261.27346224 114.63159647 244.18565048 108.84295654 227.08111572 C103.53700285 211.4079678 98.15269527 195.76552615 92.67272949 180.1524353 C86.05722457 161.29245512 79.64891972 142.36284498 73.25610352 123.42651367 C72.8623201 122.2614328 72.46853668 121.09635193 72.06282043 119.89596558 C71.32526375 117.71329178 70.58884651 115.53023248 69.85380554 113.34671021 C69.52145401 112.36322601 69.18910248 111.37974182 68.84667969 110.36645508 C68.56105164 109.51908279 68.27542358 108.67171051 67.98114014 107.79866028 C66.7119351 104.1783072 65.34704415 100.59211774 64 97 C63.67 191.05 63.34 285.1 63 382 C42.21 382 21.42 382 0 382 C0 255.94 0 129.88 0 0 Z " fill="#008584" transform="translate(3061,707)"/>
<path d="M0 0 C0.23974016 45.65928121 0.46261797 91.31862552 0.59280396 136.97836304 C0.59473675 137.654514 0.59666955 138.33066495 0.59866092 139.02730534 C0.64056502 153.7231149 0.67934708 168.41893116 0.71491461 183.1147574 C0.73237679 190.32194912 0.75052862 197.52913903 0.76904297 204.73632812 C0.7708736 205.45351683 0.77270422 206.17070554 0.77459032 206.90962724 C0.83421257 230.14139635 0.93934263 253.37268766 1.06816109 276.60416749 C1.20033641 300.48449802 1.28642348 324.3645643 1.31480986 348.24525443 C1.31884382 351.62089473 1.32340273 354.99653413 1.3282814 358.37217331 C1.32922532 359.03652477 1.33016925 359.70087623 1.33114177 360.38535955 C1.3486826 371.72337521 1.4231388 383.0604048 1.51083054 394.39807652 C1.5848717 404.48508664 1.60719343 414.5713882 1.58901928 424.65865029 C1.58005688 430.47789117 1.59372692 436.29473615 1.66887665 442.11355019 C1.73725638 447.44723687 1.74030395 452.77692894 1.69258453 458.11080365 C1.68669207 460.03440482 1.70425994 461.95826014 1.74836455 463.88136466 C1.95009739 473.22503828 1.70999711 480.10009913 -4.91533547 487.1668041 C-7.81698813 489.94919394 -10.85562123 492.49904788 -14 495 C-15.44230853 496.26537335 -16.88155097 497.53429482 -18.3125 498.8125 C-18.91449219 499.32039063 -19.51648437 499.82828125 -20.13671875 500.3515625 C-23.16515122 503.03080464 -25.93427045 505.96467336 -28.7265625 508.88671875 C-31 511 -31 511 -37 515 C-37.33 455.6 -37.66 396.2 -38 335 C-92.96983129 378.70254246 -92.96983129 378.70254246 -143.15625 427.87109375 C-143.86067923 428.66336514 -144.56510845 429.45563653 -145.29088402 430.27191615 C-177.27492892 466.55119527 -181.73099347 501.45277886 -178.83673859 548.55106163 C-178.42641049 554.68449648 -177.94227013 560.81120117 -177.4375 566.9375 C-177.35499874 567.94774797 -177.27249748 568.95799595 -177.18749619 569.9988575 C-176.85496298 574.06270702 -176.51991092 578.12633926 -176.18172598 582.18972242 C-175.28633613 592.97126496 -174.47013664 603.75610961 -173.75 614.55078125 C-173.68465876 615.48777784 -173.61931751 616.42477443 -173.55199623 617.39016485 C-171.65389546 645.24335908 -173.22631754 664.75755431 -191.9141407 686.68857384 C-197.48456016 692.86502068 -203.5160654 698.35006495 -209.9375 703.625 C-210.80254528 704.33575054 -211.66759056 705.04650108 -212.55884933 705.77878952 C-240.0661077 728 -240.0661077 728 -248 728 C-249.18582672 683.02593666 -250.28370358 638.05006194 -250.92167664 593.0644989 C-250.93120257 592.39453134 -250.94072851 591.72456379 -250.95054311 591.03429418 C-251.15724341 576.46027331 -251.3483583 561.88608679 -251.52350773 547.31165345 C-251.60954434 540.16028771 -251.69901063 533.00896671 -251.7902832 525.85766602 C-251.80381677 524.79042831 -251.80381677 524.79042831 -251.81762373 523.70163025 C-252.10964077 500.79961902 -252.62624994 477.90966001 -253.26450823 455.0148983 C-253.9213811 431.40850046 -254.34142532 407.80871188 -254.48013432 384.19333393 C-254.50000549 380.82829183 -254.52247407 377.46327172 -254.54652977 374.09825706 C-254.55118196 373.43623072 -254.55583415 372.77420438 -254.56062731 372.09211663 C-254.63605685 362.2391103 -254.91077519 352.40518662 -255.29537392 342.55980873 C-258.71513809 252.48170075 -258.71513809 252.48170075 -227.78778309 218.74669594 C-211.95300881 202.05917308 -193.78765009 185.87259006 -174 174 C-173.67 230.43 -173.34 286.86 -173 345 C-155.324375 327.345 -137.64875 309.69 -119.4375 291.5 C-113.86286865 285.93447266 -108.2882373 280.36894531 -102.54467773 274.63476562 C-97.53354857 269.62698168 -97.53354857 269.62698168 -92.52308655 264.61853027 C-90.2979493 262.39432159 -88.07141472 260.17152227 -85.8440094 257.94958496 C-82.99602243 255.10849613 -80.15048806 252.264972 -77.3066541 249.41972637 C-76.26683249 248.38019962 -75.22617815 247.34150494 -74.18456161 246.30377674 C-69.08164178 241.21901081 -64.07701827 236.11029705 -59.39960289 230.62854767 C-55.8897461 226.54455417 -51.99147644 222.80690032 -48.1875 219 C-47.32962891 218.12988281 -46.47175781 217.25976562 -45.58789062 216.36328125 C-44.76869141 215.54214844 -43.94949219 214.72101563 -43.10546875 213.875 C-42.36449951 213.12992188 -41.62353027 212.38484375 -40.86010742 211.6171875 C-39 210 -39 210 -37 210 C-37.02350572 208.67065099 -37.02350572 208.67065099 -37.04748631 207.31444645 C-37.42396574 185.68674159 -37.70473507 164.05960614 -37.88080692 142.42930698 C-37.96823338 131.96851524 -38.08727416 121.50991889 -38.2824707 111.05053711 C-38.45265329 101.92709953 -38.56175888 92.80525238 -38.59950441 83.68027157 C-38.62155089 78.85374198 -38.67281352 74.03175926 -38.79741096 69.20669746 C-39.62321885 35.94247079 -39.62321885 35.94247079 -31.19225979 26.55992794 C-28.35248736 23.9393872 -25.43009339 21.65619143 -22.21484184 19.5157299 C-15.67229521 15.03832958 -10.11677031 9.22560978 -4.60742188 3.56835938 C-1.09845267 0 -1.09845267 0 0 0 Z " fill="#47455A" transform="translate(1189,368)"/>
<path d="M0 0 C26.4 0 52.8 0 80 0 C80 50.82 80 101.64 80 154 C131.48 154 182.96 154 236 154 C236 103.18 236 52.36 236 0 C262.73 0 289.46 0 317 0 C317.02202518 48.52012693 317.04049712 97.04024916 317.05106533 145.56037965 C317.05231611 151.28219647 317.05361043 157.00401328 317.05493164 162.72583008 C317.05532511 164.43457295 317.05532511 164.43457295 317.05572652 166.17783589 C317.0600837 184.64879479 317.0679715 203.11975059 317.0771528 221.59070765 C317.08648802 240.5285901 317.09205533 259.46647093 317.09408849 278.40435559 C317.095464 290.10005637 317.09981605 301.79574841 317.10791647 313.4914465 C317.11318231 321.50002834 317.11480467 329.50860563 317.11350138 337.51718908 C317.11285774 342.14505292 317.11387836 346.77290141 317.11920547 351.40076256 C317.1240388 355.63027302 317.1243391 359.85975769 317.12089889 364.08926929 C317.12047313 365.62628955 317.12176944 367.16331136 317.12488318 368.70032852 C317.1288462 370.77582939 317.12676402 372.85123484 317.12304783 374.92673397 C317.12342755 376.08374182 317.12380727 377.24074966 317.1241985 378.43281835 C317 381 317 381 316 382 C313.54094779 382.1003188 311.10996572 382.1361818 308.65039062 382.12939453 C307.88131882 382.13114685 307.11224701 382.13289917 306.31987 382.13470459 C303.76530737 382.1391234 301.21081339 382.13618502 298.65625 382.1328125 C296.88887519 382.13348553 295.12150047 382.13445555 293.35412598 382.13571167 C289.64509197 382.13718868 285.936082 382.13503398 282.22705078 382.13037109 C277.46177507 382.1246738 272.69655568 382.12795279 267.93128204 382.13394356 C264.28028943 382.13754908 260.62931027 382.13641062 256.97831726 382.13381577 C255.22075901 382.13314647 253.46319955 382.133975 251.7056427 382.13629532 C249.25359846 382.13882171 246.80164669 382.13498146 244.34960938 382.12939453 C243.61606735 382.13141876 242.88252533 382.13344299 242.12675476 382.13552856 C237.11426264 382.11426264 237.11426264 382.11426264 236 381 C235.90296868 378.77241743 235.87813327 376.54169074 235.87974548 374.31199646 C235.87846385 373.25103299 235.87846385 373.25103299 235.87715632 372.1686359 C235.87549945 369.78093718 235.88102623 367.39330757 235.88647461 365.00561523 C235.88675646 363.30105593 235.88659878 361.59649649 235.8860321 359.89193726 C235.88574406 355.249572 235.89164194 350.60723235 235.89860606 345.96487308 C235.90483841 341.11884105 235.9054433 336.27280849 235.90663147 331.42677307 C235.90974514 322.24344036 235.917959 313.0601195 235.92798096 303.87679201 C235.94122592 291.47207388 235.94664172 279.06735254 235.95248318 266.66262913 C235.96189887 247.10841054 235.98181755 227.55421695 236 208 C184.52 208 133.04 208 80 208 C80.01160156 220.47683594 80.02320312 232.95367188 80.03515625 245.80859375 C80.0402626 253.68815125 80.04511759 261.56770755 80.04882812 269.44726562 C80.05477164 281.96851 80.06177476 294.48974768 80.07543945 307.01098633 C80.08538476 316.12839435 80.09185306 325.24579696 80.09408849 334.36321026 C80.09539586 339.19393876 80.09848336 344.02465175 80.10573006 348.85537529 C80.11248785 353.39673687 80.11461746 357.93807647 80.11310768 362.4794426 C80.11338412 364.15124569 80.11539066 365.82304948 80.11920547 367.49484825 C80.12413898 369.76725853 80.12299958 372.03958446 80.12025452 374.31199646 C80.12117631 375.58683616 80.1220981 376.86167585 80.12304783 378.17514706 C80 381 80 381 79 382 C52.93 382 26.86 382 0 382 C0 255.94 0 129.88 0 0 Z " fill="#008584" transform="translate(3728,707)"/>
<path d="M0 0 C0.82576475 30.979131 1.46059659 61.95528833 1.83835186 92.94285117 C1.88336376 96.62174951 1.92996067 100.30062618 1.97753906 103.97949219 C1.98698224 104.71172148 1.99642541 105.44395076 2.00615475 106.19836882 C2.16175744 117.97242943 2.44494824 129.73999945 2.77750066 141.51024053 C3.11721117 153.63729901 3.31472968 165.76102272 3.38718581 177.89264131 C3.4316841 184.69015461 3.54077209 191.47222643 3.80628204 198.26512909 C5.54017283 244.35226557 5.54017283 244.35226557 -10.61359715 262.23516774 C-18.30706256 270.20486245 -26.76956931 277.83088748 -36 284 C-36.33 284 -36.66 284 -37 284 C-37.33 232.52 -37.66 181.04 -38 128 C-41.444375 141.509375 -44.88875 155.01875 -48.4375 168.9375 C-56.33103542 199.86375698 -64.27904717 230.77378858 -72.41772461 261.63647461 C-72.73294571 262.83418991 -73.04816681 264.03190521 -73.37294006 265.26591492 C-73.98768222 267.60122131 -74.60395824 269.93612458 -75.22190857 272.27058411 C-76.92649605 278.75041635 -78.55071327 285.24386021 -80.10595703 291.76074219 C-80.63891817 293.971843 -81.17263861 296.18275965 -81.70637703 298.39367294 C-82.21126805 300.50701937 -82.70036045 302.6236171 -83.18907166 304.74075317 C-83.49800858 306.02239349 -83.8069455 307.30403381 -84.12524414 308.62451172 C-84.39131973 309.76040741 -84.65739532 310.8963031 -84.93153381 312.06661987 C-86.09819897 315.26959664 -87.42738969 316.81173946 -90 319 C-92.95517226 316.44035029 -94.39451748 313.56707102 -96.11938477 310.0859375 C-96.41587418 309.49179047 -96.71236359 308.89764343 -97.01783752 308.28549194 C-97.99796039 306.31805712 -98.96958333 304.34654598 -99.94140625 302.375 C-100.63002182 300.98961626 -101.31923629 299.60453007 -102.00901794 298.21972656 C-103.83021106 294.56020594 -105.64455219 290.89733318 -107.45709229 287.23352051 C-110.33061811 281.42744663 -113.2138609 275.62619863 -116.09821892 269.82550049 C-117.08951759 267.82931715 -118.07756276 265.8315528 -119.06507874 263.83349609 C-122.07647653 257.75654071 -125.13543105 251.71162601 -128.31803656 245.72227478 C-134.62317951 233.85308582 -140.6358884 221.84339877 -146.625 209.8125 C-147.63913242 207.77920185 -148.65345441 205.74599824 -149.66796875 203.71289062 C-152.11415521 198.80967626 -154.55803921 193.90532015 -157 189 C-156.88605392 190.56359379 -156.88605392 190.56359379 -156.76980591 192.15877533 C-154.36353415 225.57686264 -152.82816946 259.0058677 -152 292.5 C-151.96786234 293.75856277 -151.93572469 295.01712553 -151.90261316 296.31382656 C-149.05956835 411.36858339 -149.05956835 411.36858339 -184.91047323 449.27886939 C-190.26247857 454.77310551 -196.01715095 459.75740165 -201.9375 464.625 C-202.7225013 465.27480646 -202.7225013 465.27480646 -203.52336121 465.93774033 C-238.73831473 495 -238.73831473 495 -248 495 C-248.08267055 434.20661499 -247.95713795 373.41417726 -247.78125 312.62109375 C-247.77851342 311.67420309 -247.77577683 310.72731243 -247.77295732 309.75172812 C-247.70229481 285.32308693 -247.62892666 260.89445411 -247.55461788 236.46582377 C-247.51150974 222.28589288 -247.46913758 208.10595992 -247.42724609 193.92602539 C-247.4227656 192.40952046 -247.4227656 192.40952046 -247.41819459 190.86237907 C-247.40320068 185.78615791 -247.3882186 180.70993672 -247.37324238 175.63371551 C-247.25065962 134.08913812 -247.12604812 92.54456701 -247 51 C-242.62213762 50.04116652 -238.24420692 49.08264574 -233.86621636 48.12439775 C-232.38107731 47.79928873 -230.89595602 47.47409858 -229.4108538 47.14882135 C-218.67447818 44.79734442 -207.93451749 42.46601397 -197.17578125 40.21875 C-196.46115408 40.06946548 -195.74652691 39.92018097 -195.01024437 39.76637268 C-191.27658318 38.98717338 -187.54242084 38.21042837 -183.80786133 37.43554688 C-180.76146909 36.80286726 -177.71636496 36.16441122 -174.67211914 35.52148438 C-170.9087493 34.72673667 -167.1435184 33.9414795 -163.37672997 33.1631012 C-161.96508061 32.86977264 -160.55410995 32.57315627 -159.14388466 32.27305603 C-157.19850602 31.85976442 -155.25030077 31.45984591 -153.30200195 31.06054688 C-152.20161087 30.8307312 -151.10121979 30.60091553 -149.96748352 30.36413574 C-146.92598087 29.99091722 -144.88937776 29.98397225 -142 31 C-140.43083183 33.78171609 -139.26926901 36.30488833 -138.12890625 39.26171875 C-137.77413712 40.13430832 -137.41936798 41.00689789 -137.05384827 41.90592957 C-135.87160691 44.8260512 -134.71742938 47.7564805 -133.5625 50.6875 C-132.73354007 52.74898758 -131.90260922 54.80968358 -131.06982422 56.86962891 C-129.29340333 61.27083524 -127.52764352 65.6761166 -125.76904297 70.08447266 C-122.98495855 77.05314126 -120.15621558 84.00310157 -117.31640625 90.94921875 C-116.84488632 92.10279373 -116.37336639 93.25636871 -115.88755798 94.44490051 C-114.93837107 96.76695049 -113.9891271 99.08897715 -113.03982544 101.41098022 C-110.71849047 107.09447306 -108.40581408 112.78148069 -106.09375 118.46875 C-105.65527237 119.5472673 -105.21679474 120.62578461 -104.76502991 121.73698425 C-103.50988132 124.82459984 -102.25493329 127.9122969 -101 131 C-100.25522734 132.83203898 -99.51043659 134.6640706 -98.765625 136.49609375 C-95.17450133 145.32968172 -91.58538066 154.16407925 -88 163 C-81.48414262 139.6523431 -75.06568591 116.27868094 -68.7109375 92.88671875 C-68.43459661 91.86950619 -68.15825573 90.85229362 -67.87354088 89.80425644 C-65.05024308 79.41025558 -62.22945541 69.01557534 -59.41137695 58.6201582 C-58.3323519 54.64032399 -57.25265545 50.66067208 -56.17288589 46.68103981 C-55.19029106 43.05794847 -54.20940406 39.43439522 -53.22851562 35.81084156 C-52.56469234 33.36960553 -51.89232154 30.93084467 -51.21920776 28.49215698 C-50.41845182 25.5807819 -49.66477478 22.66384831 -48.95193481 19.72976685 C-48.62949799 18.46099701 -48.30706116 17.19222717 -47.97485352 15.88500977 C-47.5781118 14.23928734 -47.5781118 14.23928734 -47.1733551 12.56031799 C-46 10 -46 10 -43.63381958 8.692276 C-42.76465912 8.46382492 -41.89549866 8.23537384 -41 8 C-39.97613945 7.73061111 -39.97613945 7.73061111 -38.93159485 7.45578003 C-38.25589951 7.31810211 -37.58020416 7.18042419 -36.8840332 7.03857422 C-36.11005692 6.87855927 -35.33608063 6.71854431 -34.53865051 6.55368042 C-33.30715523 6.30667892 -33.30715523 6.30667892 -32.05078125 6.0546875 C-31.19695358 5.87994904 -30.34312592 5.70521057 -29.46342468 5.525177 C-27.66608823 5.15829562 -25.8682911 4.79366477 -24.07006836 4.43115234 C-21.31061155 3.87461913 -18.55268657 3.31094599 -15.79492188 2.74609375 C-14.04695998 2.39020737 -12.29891587 2.03472449 -10.55078125 1.6796875 C-9.7237117 1.51097137 -8.89664215 1.34225525 -8.04450989 1.16842651 C-2.23303675 0 -2.23303675 0 0 0 Z " fill="#47455A" transform="translate(1189,52)"/>
<path d="M0 0 C25.41 0 50.82 0 77 0 C77.33 57.09 77.66 114.18 78 173 C80.97 168.05 83.94 163.1 87 158 C102.29903755 137.18027114 123.24414624 123.36282162 148.77856445 118.46728516 C165.494737 116.04252167 184.9562708 116.62772621 201 122 C201.66370605 122.21962402 202.32741211 122.43924805 203.01123047 122.66552734 C216.40056485 127.24753981 226.82802376 134.2710244 237 144 C238.01513672 144.90298828 238.01513672 144.90298828 239.05078125 145.82421875 C265.18000979 169.96364632 274.36296199 210.9461988 276 245 C277.63282192 293.04432723 268.54421934 339.76316245 238 378 C237.42765625 378.72703125 236.8553125 379.4540625 236.265625 380.203125 C220.26989614 399.55033991 195.49459785 410.63552812 170.9453125 413.68359375 C140.27463792 416.14332112 111.2966367 410.50843935 87.4140625 390.18359375 C84.61772943 387.65422451 81.93202584 385.05045273 79.33984375 382.3125 C78.01337071 380.87900567 78.01337071 380.87900567 76 380 C75.773125 380.77859375 75.54625 381.5571875 75.3125 382.359375 C73.57255323 387.18565591 71.3079294 391.67370569 69 396.25 C68.54882812 397.16007812 68.09765625 398.07015625 67.6328125 399.0078125 C66.97925781 400.31105469 66.97925781 400.31105469 66.3125 401.640625 C65.91675781 402.42985352 65.52101562 403.21908203 65.11328125 404.03222656 C64 406 64 406 62 408 C41.54 408 21.08 408 0 408 C0 273.36 0 138.72 0 0 Z M119 183 C117.65615234 183.63615234 117.65615234 183.63615234 116.28515625 184.28515625 C105.39992595 189.76593841 95.62585342 198.10429209 87.58178711 207.23236084 C86 209 86 209 83.79516602 211.04937744 C74.31758315 221.2084547 75.61692488 233.23416716 75.6640625 246.43359375 C75.64781514 248.91880176 75.62949995 251.40399702 75.60922241 253.88917542 C75.57800673 259.08322811 75.58111404 264.27590077 75.60693359 269.4699707 C75.63581826 276.1000185 75.56475999 282.72470799 75.46598244 289.35392666 C75.40319479 294.48203687 75.40111591 299.60887218 75.41614914 304.73729134 C75.41477017 307.1800098 75.39322231 309.62280927 75.35042191 312.06515312 C74.73458183 327.20145846 74.73458183 327.20145846 81.44119835 340.13504887 C84.13621793 342.67985659 86.97162376 344.87027811 90 347 C91.17142598 347.89348786 92.33977185 348.79103039 93.50479126 349.69285583 C105.51166016 358.75244257 118.41437328 363.36670517 133.375 363.3125 C134.25671875 363.32861328 135.1384375 363.34472656 136.046875 363.36132812 C148.46602866 363.37043308 159.02113458 358.86568791 168.125 350.4375 C190.76381419 326.16214503 194.93501519 287.83988047 194.13623047 256.14648438 C193.11514282 232.56265353 188.52661542 206.93779121 171.1171875 189.640625 C159.90822584 179.50091536 146.77449121 178.28308108 132.37109375 178.82080078 C127.42014013 179.19497705 123.3714551 180.74761302 119 183 Z " fill="#008584" transform="translate(4564,681)"/>
<path d="M0 0 C25.74 0 51.48 0 78 0 C78.01458252 6.03128174 78.02916504 12.06256348 78.04418945 18.27661133 C78.09452126 38.201627 78.1609641 58.12656486 78.23571491 78.05150318 C78.28064374 90.13222696 78.32006518 102.21292145 78.34643555 114.29370117 C78.36943915 124.82565718 78.4028637 135.35752028 78.44870156 145.88940257 C78.47260178 151.46381194 78.49135158 157.03812947 78.49761391 162.61258888 C78.50367917 167.86487504 78.52373128 173.11692631 78.55427551 178.36912537 C78.56303261 180.29149428 78.56678317 182.21389392 78.56500816 184.13628197 C78.32200292 203.37713904 78.32200292 203.37713904 87 220 C95.616545 226.56846979 104.2712254 228.91880151 115 228 C122.42424632 226.70099394 129.31476939 224.46729545 136 221 C136.77730469 220.60296875 137.55460937 220.2059375 138.35546875 219.796875 C149.80120194 213.46441848 158.75814592 203.84148445 166.71953881 193.61442029 C167.91195278 192.11101095 169.15407885 190.64740272 170.39957333 189.18766499 C177.66575604 179.99042586 178.28134344 172.55925294 178.11352539 161.0925293 C178.12086472 159.32706726 178.13215701 157.56161797 178.14706421 155.79620361 C178.17616506 151.04237737 178.15053244 146.29028972 178.11447453 141.53657126 C178.08618907 136.55440395 178.10906373 131.57246642 178.12632751 126.59028625 C178.15127909 117.17336586 178.13074889 107.75712565 178.09355396 98.34026796 C178.05341854 87.61217245 178.06447885 76.8843164 178.07967007 66.15617883 C178.10975847 44.10379969 178.06935 22.05230609 178 0 C203.41 0 228.82 0 255 0 C255 93.39 255 186.78 255 283 C229.59 283 204.18 283 178 283 C177.67 266.83 177.34 250.66 177 234 C173.04 239.28 169.08 244.56 165 250 C145.73400385 272.62634432 120.88374597 286.92839481 91 290 C68.25230115 291.70459516 46.26022706 286.45090691 28.34765625 271.8359375 C25.82186285 269.6253935 23.39773568 267.34829783 21 265 C20.37351563 264.40960937 19.74703125 263.81921875 19.1015625 263.2109375 C-0.24392744 243.34023064 -0.32878665 211.77327861 -0.22705078 185.95458984 C-0.22648508 183.91255194 -0.22680633 181.87051362 -0.22793579 179.82847595 C-0.22850409 174.34414295 -0.2168355 168.8598994 -0.20278788 163.37558699 C-0.19019232 157.62211035 -0.18910312 151.86863112 -0.18673706 146.11514282 C-0.18054802 135.24656237 -0.16417245 124.37802268 -0.14403808 113.50946009 C-0.12159841 101.12476165 -0.11066546 88.74006114 -0.10064721 76.35534739 C-0.07980364 50.9035372 -0.04316 25.45178281 0 0 Z " fill="#008685" transform="translate(4175,805)"/>
<path d="M0 0 C16.91923686 12.82879023 26.34489004 30.6119054 29.32295322 51.55253315 C30.81753229 63.59539 30.80450774 75.60160112 30.78076172 87.71264648 C30.78047916 89.74409483 30.78063892 91.77554329 30.78120422 93.80699158 C30.78148952 99.28539495 30.77563627 104.76377614 30.76863027 110.24217439 C30.76235196 115.98100307 30.7617894 121.71983235 30.76060486 127.45866394 C30.7575047 138.30968825 30.74930912 149.16070241 30.73925537 160.01172227 C30.72805329 172.37212578 30.72257348 184.73252979 30.71755993 197.09293711 C30.70712534 222.50418504 30.6887963 247.91541906 30.66723633 273.32666016 C5.25723633 273.32666016 -20.15276367 273.32666016 -46.33276367 273.32666016 C-46.35258301 267.7969043 -46.37240234 262.26714844 -46.39282227 256.56982422 C-46.45988707 238.24942206 -46.53742741 219.92907513 -46.62029076 201.60873795 C-46.67025126 190.50691329 -46.71669499 179.40509542 -46.75463867 168.30322266 C-46.78774872 158.61829614 -46.82768239 148.93342492 -46.87555373 139.24855971 C-46.90063128 134.12827696 -46.92246606 129.00802999 -46.93610764 123.88770294 C-46.94910046 119.05156499 -46.971333 114.215551 -47.00014687 109.37948227 C-47.00909013 107.62053406 -47.0148811 105.86156598 -47.01697731 104.10259628 C-47.02984508 94.93112521 -47.30946465 85.82018196 -48.10269165 76.68011475 C-48.19342439 75.47418682 -48.19342439 75.47418682 -48.28599012 74.24389672 C-49.15112372 65.42380085 -52.57343342 57.25454659 -59.33276367 51.32666016 C-68.74636819 45.44985582 -79.61936711 44.86422913 -90.41870117 46.67675781 C-115.24365213 52.4281207 -132.00699361 73.0446705 -145.33276367 93.32666016 C-146.82146801 96.30406883 -146.47462334 99.00158175 -146.49098206 102.32473755 C-146.49592003 103.05331872 -146.50085801 103.78189989 -146.50594562 104.53255928 C-146.52136539 106.98622204 -146.52969332 109.43985855 -146.53808594 111.89355469 C-146.54766095 113.64752434 -146.5576708 115.40149167 -146.56808472 117.15545654 C-146.59518074 121.92789834 -146.61616482 126.70035007 -146.6360867 131.47282648 C-146.65791734 136.4563393 -146.68532029 141.43982133 -146.71214294 146.42330933 C-146.76210943 155.86512278 -146.80703356 165.30695328 -146.85016531 174.74880016 C-146.89950392 185.4959417 -146.95443454 196.24305236 -147.0098449 206.99016404 C-147.12372567 229.10230205 -147.22981311 251.21446837 -147.33276367 273.32666016 C-172.74276367 273.32666016 -198.15276367 273.32666016 -224.33276367 273.32666016 C-224.33276367 179.93666016 -224.33276367 86.54666016 -224.33276367 -9.67333984 C-198.92276367 -9.67333984 -173.51276367 -9.67333984 -147.33276367 -9.67333984 C-147.00276367 6.82666016 -146.67276367 23.32666016 -146.33276367 40.32666016 C-143.36276367 36.03666016 -140.39276367 31.74666016 -137.33276367 27.32666016 C-135.31797913 24.93500944 -133.37246663 22.67943072 -131.20776367 20.45166016 C-130.69189697 19.91049561 -130.17603027 19.36933105 -129.64453125 18.81176758 C-128.21165195 17.31253665 -126.77248224 15.81932453 -125.33276367 14.32666016 C-124.74108398 13.66021484 -124.1494043 12.99376953 -123.53979492 12.30712891 C-93.44524476 -20.72724878 -35.4811888 -25.68478181 0 0 Z " fill="#008584" transform="translate(2896.332763671875,814.67333984375)"/>
<path d="M0 0 C0.72718231 -0.00626404 1.45436462 -0.01252808 2.20358276 -0.01898193 C31.2142115 -0.1770914 59.49214435 8.18772379 80.93359375 28.359375 C83.15970198 30.48096356 83.15970198 30.48096356 85.66796875 32.3046875 C109.33651657 52.34038845 115.10845183 91.31604759 118.4375 120.0625 C119.48080857 134.49493527 119.74921343 148.9740431 120.1875 163.4375 C62.7675 163.4375 5.3475 163.4375 -53.8125 163.4375 C-48.70009694 190.02199593 -44.32606168 211.70272383 -22.125 228 C4.74861977 246.0235104 39.3943981 245.49781579 70.1875 239.4375 C83.61949858 236.69698264 96.72314171 233.22215223 109.64086914 228.62207031 C110.44645264 228.33686523 111.25203613 228.05166016 112.08203125 227.7578125 C113.13161011 227.37520264 113.13161011 227.37520264 114.20239258 226.98486328 C116.1875 226.4375 116.1875 226.4375 120.1875 226.4375 C120.1875 244.2575 120.1875 262.0775 120.1875 280.4375 C57.74975023 297.2476634 -13.26965441 308.8735128 -72.359375 274.85766602 C-103.18094297 256.35448289 -121.94253907 223.18616328 -130.48168945 189.06787109 C-133.94595873 174.82895745 -135.19935981 160.85037002 -135.125 146.25 C-135.12176727 145.10105255 -135.12176727 145.10105255 -135.11846924 143.92889404 C-134.93576167 103.3456363 -121.86128466 64.39234713 -93.5625 34.75 C-78.27913735 19.98766108 -60.28415879 9.94686993 -39.8125 4.4375 C-39.02649414 4.22577148 -38.24048828 4.01404297 -37.43066406 3.79589844 C-25.03317712 0.64280925 -12.72412135 0.05113829 0 0 Z M-37.8125 66.4375 C-40.07724529 69.64766962 -41.99032717 72.95927835 -43.8125 76.4375 C-44.25464844 77.28054688 -44.69679688 78.12359375 -45.15234375 78.9921875 C-51.15890694 91.29742639 -54.8125 105.73405328 -54.8125 119.4375 C-22.1425 119.4375 10.5275 119.4375 44.1875 119.4375 C42.87440889 85.14264153 42.87440889 85.14264153 24.80078125 57.49609375 C4.5967612 41.58052041 -21.89852933 47.52280182 -37.8125 66.4375 Z " fill="#008584" transform="translate(2429.8125,798.5625)"/>
<path d="M0 0 C116.49 0 232.98 0 353 0 C353 17.49 353 34.98 353 53 C308.12 53 263.24 53 217 53 C217 161.57 217 270.14 217 382 C190.6 382 164.2 382 137 382 C137 273.43 137 164.86 137 53 C91.79 53 46.58 53 0 53 C0 35.51 0 18.02 0 0 Z " fill="#008584" transform="translate(1902,707)"/>
<path d="M0 0 C1.49717271 -0.0029651 2.99434278 -0.00768637 4.49150518 -0.01398599 C8.58798546 -0.02618388 12.68406449 -0.01362791 16.78051468 0.00312654 C21.24362199 0.01692726 25.70669077 0.00736805 30.16980618 0.00081658 C37.98584533 -0.00746118 45.80176243 -0.00093277 53.61778736 0.01536942 C65.2398453 0.03954252 76.86182654 0.04070957 88.48390503 0.03720146 C108.0355036 0.03194953 127.58704805 0.04529755 147.13863087 0.06927109 C166.49524039 0.09294469 185.85182737 0.10833599 205.20845127 0.11268234 C206.41229301 0.1129573 207.61613474 0.11323226 208.85645653 0.11351555 C214.97023908 0.1148689 221.08402165 0.11607443 227.19780423 0.11722305 C270.49403534 0.12562318 313.79023701 0.15256836 357.08645153 0.1904335 C399.14634577 0.22717493 441.20623195 0.25550758 483.26613903 0.27246475 C484.56276378 0.27299086 485.85938852 0.27351696 487.19530493 0.27405901 C500.21662435 0.27933312 513.23794383 0.28443637 526.25926336 0.28941445 C552.78484568 0.29955911 579.31042747 0.31084412 605.83600903 0.32281876 C607.05559413 0.32336792 608.27517924 0.32391708 609.53172146 0.32448288 C690.96412094 0.3612813 772.3965041 0.42466162 853.82888317 0.49219131 C853.82888317 0.82219131 853.82888317 1.15219131 853.82888317 1.49219131 C853.19069904 1.62321369 852.55251492 1.75423607 851.89499187 1.88922882 C831.84908157 6.00488229 811.80367351 10.12297783 791.75862265 14.24281502 C789.33921995 14.74006683 786.91981184 15.23729225 784.5004034 15.73451614 C738.74416392 25.13838426 692.99654784 34.58116099 647.27438736 44.1496315 C643.53380703 44.93233569 639.79307127 45.71429564 636.05233097 46.49623489 C633.54949943 47.0198787 631.04697301 47.54496111 628.5444746 48.07019424 C627.05799099 48.38116641 625.57149578 48.69208316 624.08498669 49.0029335 C622.81816555 49.2685408 621.55134441 49.5341481 620.24613476 49.80780411 C615.13548184 50.83133585 610.30431283 51.61722748 605.08230937 51.61638981 C603.3849856 51.61976075 603.3849856 51.61976075 601.65337247 51.62319979 C599.79993142 51.61925927 599.79993142 51.61925927 597.90904713 51.61523914 C596.57182002 51.61597908 595.23459309 51.61715799 593.8973667 51.61873564 C590.21246941 51.62180615 586.52759969 51.61862829 582.84270445 51.61445751 C578.83779282 51.61102503 574.832884 51.61339378 570.82797182 51.615035 C563.80558772 51.61710992 556.78321209 51.61546293 549.76082897 51.61139679 C539.31876478 51.60536735 528.87670593 51.60506047 518.43464031 51.60593878 C500.87031959 51.60725345 483.30600263 51.60390834 465.74168301 51.59792137 C448.34700661 51.59200741 430.95233178 51.58815604 413.55765438 51.58706856 C411.93624731 51.58696545 411.93624731 51.58696545 410.28208453 51.58686026 C404.79270325 51.58652193 399.30332197 51.58622054 393.81394069 51.58593338 C354.9173905 51.58383213 316.02084236 51.57709241 277.12429333 51.56763077 C239.33327781 51.55844865 201.54226286 51.5513639 163.75124645 51.54712296 C162.586672 51.54699143 161.42209754 51.5468599 160.22223295 51.54672439 C148.52725874 51.54540589 136.83228452 51.54413007 125.13731029 51.54288553 C101.31260791 51.54034922 77.48790557 51.53752796 53.66320324 51.53453445 C52.56774562 51.53439716 51.472288 51.53425987 50.34363469 51.53411842 C-22.82795 51.52491541 -95.99953356 51.50906994 -169.17111683 51.49219131 C-166.71581897 49.03689345 -164.81089926 48.56449885 -161.50558949 47.5029335 C-160.30130299 47.11282593 -159.09701649 46.72271835 -157.85623646 46.32078934 C-156.5159157 45.89344915 -155.17556223 45.46621154 -153.83517933 45.03906631 C-152.4311751 44.58669353 -151.02735018 44.1337639 -149.62369251 43.68031693 C-145.81176388 42.45051115 -141.99748477 41.22814844 -138.18276691 40.00702667 C-134.1939027 38.72873942 -130.20723987 37.44362657 -126.22043324 36.15893936 C-120.41648867 34.28927988 -114.61189279 32.42166785 -108.80650616 30.5564909 C-98.12614896 27.12471622 -87.45194437 23.6742026 -76.78049183 20.21484756 C-75.22026329 19.70919259 -73.66003179 19.20354677 -72.09979725 18.69791031 C-69.06045563 17.71286923 -66.02113947 16.72774966 -62.98184681 15.74255753 C-62.24715923 15.50440826 -61.51247166 15.266259 -60.75552082 15.0208931 C-59.28566968 14.54442523 -57.8158261 14.06793404 -56.34599018 13.59141922 C-52.14989427 12.23114177 -47.95350092 10.87178924 -43.75666523 9.51379585 C-41.90360957 8.91393257 -40.05087476 8.31307843 -38.1981554 7.71217728 C-37.06436451 7.34543396 -35.93057362 6.97869064 -34.76242542 6.60083389 C-33.79743122 6.28826141 -32.83243702 5.97568893 -31.83820057 5.65364456 C-30.02299412 5.0787252 -30.02299412 5.0787252 -28.17111683 4.49219131 C-27.29051049 4.17172186 -26.40990414 3.8512524 -25.50261276 3.52107175 C-16.87939813 0.55465429 -9.05648918 -0.07223782 0 0 Z " fill="#47455A" transform="translate(336.17111682891846,-0.4921913146972656)"/>
<path d="M0 0 C14.95215732 12.80703248 23.68120299 29.93300535 28.375 48.8125 C28.68179688 50.02679687 28.98859375 51.24109375 29.3046875 52.4921875 C36.37989908 84.90339483 33.10675485 122.68035226 15.6796875 151.3828125 C11.95350737 157.15986127 7.24270166 161.99520353 2.375 166.8125 C1.73046875 167.47894531 1.0859375 168.14539062 0.421875 168.83203125 C-14.54299623 183.24385289 -36.88827662 188.0632298 -57.05859375 187.8125 C-79.13091718 187.07559801 -99.83777676 180.02241624 -116.02734375 164.6015625 C-138.1038493 140.89836706 -143.5575252 109.38924783 -142.91015625 78.1953125 C-141.8804523 49.5617875 -133.51945842 21.90257132 -112.4375 1.5625 C-81.50777373 -25.34419894 -31.93652702 -24.88387731 0 0 Z M-96.625 22.8125 C-113.77734509 43.42861963 -116.34479283 72.39718282 -114.3125 98.19921875 C-112.4895498 117.61550303 -106.98712619 137.76123255 -91.97265625 151.18359375 C-78.50634078 161.96018524 -64.57041314 164.74171009 -47.625 163.8125 C-32.0060099 161.60603533 -20.93846441 154.59442229 -10.875 142.5625 C4.5684799 121.55936734 6.68364577 90.96279526 3.375 65.8125 C0.33968362 46.83464269 -5.83095037 28.18031607 -21.10546875 15.52734375 C-31.52036183 8.43875761 -42.44862438 5.42213768 -54.875 5.5 C-55.80086914 5.50491455 -56.72673828 5.5098291 -57.68066406 5.51489258 C-73.87327014 5.79138629 -85.41426382 11.15556536 -96.625 22.8125 Z " fill="#47455A" transform="translate(3387.625,1330.1875)"/>
<path d="M0 0 C15.83236204 12.13732855 22.54001672 29.33468981 25.5625 48.58203125 C28.59437578 74.37752499 26.09108646 102.69909457 10 124 C0.68406138 135.78396714 -10.99595122 144.33562534 -26 147 C-29.58785599 147.29532692 -33.15126275 147.33420342 -36.75 147.3125 C-37.72573975 147.30686035 -38.70147949 147.3012207 -39.70678711 147.29541016 C-52.57691957 147.07878098 -60.92067624 143.57507251 -73 138 C-73 158.13 -73 178.26 -73 199 C-81.25 199 -89.5 199 -98 199 C-98 132.01 -98 65.02 -98 -4 C-89.75 -4 -81.5 -4 -73 -4 C-72.505 2.93 -72.505 2.93 -72 10 C-70.47375 8.824375 -68.9475 7.64875 -67.375 6.4375 C-47.9172795 -7.64998956 -21.26402513 -15.21576038 0 0 Z M-69 30 C-69.71242859 30.3745784 -70.42485718 30.7491568 -71.15887451 31.13508606 C-73.52160845 33.52834795 -73.47203551 35.3641689 -73.49768066 38.64054871 C-73.47610901 39.78853691 -73.47610901 39.78853691 -73.45410156 40.9597168 C-73.45468567 41.76970123 -73.45526978 42.57968567 -73.45587158 43.41421509 C-73.45308359 46.09298477 -73.42195876 48.77064334 -73.390625 51.44921875 C-73.38316513 53.30580538 -73.377471 55.16239988 -73.37347412 57.01899719 C-73.35819774 61.90676595 -73.31889872 66.79405964 -73.2746582 71.68164062 C-73.23374866 76.66855441 -73.21547234 81.65554492 -73.1953125 86.64257812 C-73.15240637 96.4285942 -73.08413084 106.21425761 -73 116 C-71.72021419 116.64687753 -70.43962251 117.29216091 -69.15869141 117.93676758 C-68.4456485 118.29628006 -67.73260559 118.65579254 -66.99795532 119.02619934 C-64.83005281 120.08283203 -62.66909982 120.9442804 -60.375 121.6875 C-59.68148437 121.91824219 -58.98796875 122.14898438 -58.2734375 122.38671875 C-46.55510218 125.54785044 -31.88225482 125.832013 -21 120 C-9.56447528 111.82488472 -4.03332624 101.6704738 -1.63623047 87.91210938 C1.3199291 68.26312032 2.03218568 44.50234365 -9.875 27.4375 C-15.19317689 21.06932408 -21.26916028 17.43794641 -29.62890625 16.6640625 C-45.31392263 16.50830266 -56.34276043 21.03926846 -69 30 Z " fill="#47455A" transform="translate(2558,1369)"/>
<path d="M0 0 C1.12627808 -0.00637985 2.25255615 -0.0127597 3.41296387 -0.01933289 C4.64502563 -0.02044571 5.8770874 -0.02155853 7.14648438 -0.02270508 C8.41431763 -0.02603348 9.68215088 -0.02936188 10.98840332 -0.03279114 C13.68875602 -0.03787142 16.38900832 -0.04063004 19.08935547 -0.04003906 C21.82803068 -0.03995865 24.56653563 -0.04675582 27.30517578 -0.06054688 C83.0389096 -0.33690748 83.0389096 -0.33690748 104.48632812 19.80151367 C116.83830624 32.64585833 119.17294569 47.8765242 118.94726562 64.93823242 C118.47767944 81.07989739 111.20731217 94.98922777 99.74023438 106.14526367 C99.22332031 106.6944043 98.70640625 107.24354492 98.17382812 107.80932617 C85.65695951 120.03206471 66.03259708 124.35867856 49.18164062 124.24291992 C48.39248764 124.24150497 47.60333466 124.24009003 46.79026794 124.2386322 C44.29438323 124.23307923 41.79859153 124.22053575 39.30273438 124.20776367 C37.60026172 124.20274258 35.89778765 124.19818075 34.1953125 124.1940918 C30.04358449 124.18312525 25.89192515 124.16589359 21.74023438 124.14526367 C21.74245499 125.05759262 21.7446756 125.96992157 21.7469635 126.90989685 C21.76696366 135.48909644 21.7822071 144.06828826 21.79204655 152.64750576 C21.79727507 157.05863371 21.80437215 161.46974247 21.81567383 165.88085938 C21.82650381 170.13427482 21.83251144 174.38767176 21.83511162 178.64109993 C21.83696567 180.26748 21.8405859 181.89385901 21.84596443 183.52023125 C21.85317636 185.7903656 21.85422526 188.06042252 21.85375977 190.33056641 C21.85598038 191.62518295 21.85820099 192.9197995 21.86048889 194.25364685 C21.74023438 197.14526367 21.74023438 197.14526367 20.74023438 198.14526367 C18.82565156 198.24498153 16.9074112 198.27606956 14.99023438 198.27807617 C13.82492188 198.27936523 12.65960937 198.2806543 11.45898438 198.28198242 C10.23179687 198.27811523 9.00460938 198.27424805 7.74023438 198.27026367 C6.51304687 198.27413086 5.28585938 198.27799805 4.02148438 198.28198242 C2.85617188 198.28069336 1.69085937 198.2794043 0.49023438 198.27807617 C-0.58742188 198.27694824 -1.66507813 198.27582031 -2.77539062 198.2746582 C-5.25976562 198.14526367 -5.25976562 198.14526367 -6.25976562 197.14526367 C-6.35972845 194.61820737 -6.39417765 192.11841853 -6.38674927 189.59082031 C-6.38830926 188.79029519 -6.38986925 187.98977007 -6.39147651 187.16498661 C-6.3954898 184.46177941 -6.39229561 181.75862761 -6.38916016 179.05541992 C-6.39051405 177.12588467 -6.39229392 175.19634968 -6.39447021 173.26681519 C-6.39904595 168.01077013 -6.39725442 162.75474461 -6.39409113 157.49869919 C-6.39156825 152.01117651 -6.39390486 146.52365556 -6.39547729 141.03613281 C-6.3972992 131.81892597 -6.39489213 122.60172712 -6.39013672 113.38452148 C-6.38469406 102.71166245 -6.3864567 92.03882251 -6.39196312 81.36596394 C-6.39649366 72.22035464 -6.3971451 63.0747511 -6.39452446 53.92914104 C-6.39296135 48.45903396 -6.39276883 42.98893586 -6.39606094 37.51882935 C-6.39893879 32.37746405 -6.39696557 27.2361235 -6.39116669 22.09476089 C-6.38983862 20.20203823 -6.39023398 18.3093135 -6.39242935 16.41659164 C-6.39513905 13.84426816 -6.39176197 11.2720253 -6.38674927 8.69970703 C-6.38897999 7.94067613 -6.39121071 7.18164522 -6.39350903 6.39961338 C-6.37012499 0.26501281 -6.03878182 0.02314283 0 0 Z M21.74023438 24.14526367 C21.74023438 49.55526367 21.74023438 74.96526367 21.74023438 101.14526367 C54.45710971 102.78138386 54.45710971 102.78138386 81.54101562 88.57495117 C89.97864738 79.25309158 91.33432518 68.43091491 91.05664062 56.35229492 C90.75887846 50.79697479 89.28812782 46.08128167 86.74023438 41.14526367 C86.40121094 40.48139648 86.0621875 39.8175293 85.71289062 39.13354492 C81.04665913 31.47826834 71.97253522 27.75215894 63.74023438 25.14526367 C49.92680573 22.84302557 35.74420207 24.14526367 21.74023438 24.14526367 Z " fill="#48465B" transform="translate(3786.259765625,1315.854736328125)"/>
<path d="M0 0 C89.03580402 0 89.03580402 0 108.7109375 18.64453125 C120.74550853 31.02822806 124.85302395 44.71399712 125.05419922 61.75537109 C124.65897522 78.12334151 118.25309335 93.18658665 107 105 C92.41986008 118.30537359 73.95544961 124.23170912 54.44140625 124.09765625 C53.65225327 124.0962413 52.86310028 124.09482635 52.05003357 124.09336853 C49.55414885 124.08781555 47.05835715 124.07527208 44.5625 124.0625 C42.86002735 124.05747891 41.15755327 124.05291707 39.45507812 124.04882812 C35.30335012 124.03786158 31.15169078 124.02062991 27 124 C27.00222061 124.91232895 27.00444122 125.8246579 27.00672913 126.76463318 C27.02672928 135.34383277 27.04197272 143.92302458 27.05181217 152.50224209 C27.05704069 156.91337004 27.06413777 161.3244788 27.07543945 165.7355957 C27.08626944 169.98901115 27.09227707 174.24240809 27.09487724 178.49583626 C27.09673129 180.12221633 27.10035152 181.74859534 27.10573006 183.37496758 C27.11294198 185.64510193 27.11399088 187.91515885 27.11352539 190.18530273 C27.115746 191.47991928 27.11796661 192.77453583 27.12025452 194.10838318 C27 197 27 197 26 198 C17.42 198 8.84 198 0 198 C0 132.66 0 67.32 0 0 Z M27 24 C27 49.41 27 74.82 27 101 C57.85212748 102.76990799 57.85212748 102.76990799 84.6875 90.6875 C85.8321875 89.3571875 85.8321875 89.3571875 87 88 C87.50402344 87.42507813 88.00804688 86.85015625 88.52734375 86.2578125 C96.94534663 76.00801926 97.22833087 63.74570582 96 51 C94.31277521 42.64013481 90.58002988 36.5160665 83.84765625 31.34765625 C67.01164808 20.1873202 46.08373293 24 27 24 Z " fill="#48465B" transform="translate(2062,1316)"/>
<path d="M0 0 C13.65776694 10.8042692 19.52792082 27.13851527 21.578125 43.9296875 C22.38508529 52.56203901 22.1875 61.02021626 22.1875 69.73046875 C-11.4725 69.73046875 -45.1325 69.73046875 -79.8125 69.73046875 C-77.85039913 87.38937658 -76.26011466 101.04971285 -62.5625 112.48046875 C-50.29844001 121.55421584 -35.29091052 122.23610554 -20.59082031 120.46240234 C-6.94009717 118.16562432 6.16273269 111.97395536 17.1875 103.73046875 C17.8475 104.06046875 18.5075 104.39046875 19.1875 104.73046875 C19.1875 113.64046875 19.1875 122.55046875 19.1875 131.73046875 C-6.18643045 144.41743397 -33.40462778 148.88766436 -60.9296875 140.81640625 C-71.72455767 137.13837569 -79.68309041 131.69756067 -87.8125 123.73046875 C-88.45316406 123.12589844 -89.09382813 122.52132813 -89.75390625 121.8984375 C-103.68558295 107.59275605 -106.79561714 85.36791251 -106.8515625 66.31152344 C-106.51180273 43.86189647 -100.40626856 23.36045208 -84.8125 6.73046875 C-62.21840966 -14.7135119 -25.62554633 -18.01796226 0 0 Z M-70.5625 23.609375 C-77.15739172 31.7705535 -78.76933331 39.29880189 -79.8125 49.73046875 C-54.7325 49.73046875 -29.6525 49.73046875 -3.8125 49.73046875 C-3.8125 38.85183333 -4.85751617 29.04966458 -12.04296875 20.4453125 C-20.76058932 11.99711067 -29.49547535 10.31717936 -41.19848633 10.36694336 C-53.32092607 10.61573921 -62.25865341 14.69386114 -70.5625 23.609375 Z " fill="#47455A" transform="translate(2707.8125,1372.26953125)"/>
<path d="M0 0 C14.96193114 12.78565024 22.32629215 31.46011742 24.765625 50.640625 C24.88116437 52.36793865 24.95874044 54.0978863 25.015625 55.828125 C25.05429688 56.79927246 25.05429688 56.79927246 25.09375 57.79003906 C25.9398841 81.64044401 22.11194904 105.01683522 6.828125 124.140625 C-0.37231225 131.78492482 -9.96677563 137.77707951 -19.984375 140.828125 C-20.67402344 141.03953125 -21.36367187 141.2509375 -22.07421875 141.46875 C-39.76512982 146.08090559 -59.76585803 144.27282346 -75.765625 135.26171875 C-92.28468319 124.27450566 -101.44750666 108.72476294 -105.734375 89.578125 C-110.43668679 65.42896444 -109.42632467 36.9198235 -95.9375 15.54296875 C-92.63375665 10.95076549 -88.97773964 6.82865906 -84.984375 2.828125 C-84.42105469 2.25320313 -83.85773437 1.67828125 -83.27734375 1.0859375 C-60.98869903 -19.84695024 -23.40652945 -17.03407117 0 0 Z M-68.984375 20.828125 C-69.52964844 21.37855469 -70.07492188 21.92898438 -70.63671875 22.49609375 C-83.30708309 37.10086486 -81.78060872 60.95710158 -80.984375 78.828125 C-80.52467627 83.65496169 -79.47912735 88.21500997 -77.984375 92.828125 C-77.7059375 93.73046875 -77.4275 94.6328125 -77.140625 95.5625 C-73.84386358 104.94121783 -67.66723156 112.8755633 -58.984375 117.828125 C-49.54454619 122.31842195 -37.01712169 122.45429703 -27.109375 119.390625 C-17.04904248 115.02510533 -10.6741317 107.47167171 -6.390625 97.515625 C0.48707769 79.48076018 1.05110262 55.22072275 -4.984375 36.828125 C-5.2628125 35.92707031 -5.54125 35.02601562 -5.828125 34.09765625 C-9.18654048 24.52906731 -14.6691957 18.01876995 -23.45703125 13.01953125 C-38.99758155 5.69361496 -57.13748486 8.46949015 -68.984375 20.828125 Z " fill="#47455A" transform="translate(2407.984375,1374.171875)"/>
<path d="M0 0 C14.46144593 13.68845105 21.21717692 33.48090974 22.13012695 53.05371094 C22.81796463 79.40553642 19.97929625 103.64227478 1.6953125 123.90625 C-11.44979684 136.70600343 -29.00979222 141.58696081 -46.99609375 141.34765625 C-64.01504038 140.27665076 -80.03290906 134.60450221 -91.90234375 121.91796875 C-105.96324306 104.65664086 -110.64297 84.32860672 -110.43359375 62.53515625 C-110.4298877 61.83865967 -110.42618164 61.14216309 -110.42236328 60.42456055 C-110.25301963 38.00192155 -105.14463302 17.62867248 -88.91015625 1.2421875 C-64.28578655 -21.7837582 -25.68571318 -21.26234183 0 0 Z M-73.99609375 20.34765625 C-85.68566042 38.44922152 -86.17809069 62.54214659 -82.68359375 83.2421875 C-80.14650057 94.7023527 -75.20086826 106.75793344 -64.99609375 113.34765625 C-54.86881226 118.68593514 -44.01798546 120.05340479 -32.78125 117.6640625 C-21.80693988 113.95465333 -15.16688915 107.68924706 -9.99609375 97.34765625 C-5.93054348 86.65402705 -4.78812654 76.79092063 -4.75585938 65.41943359 C-4.74624976 63.38075412 -4.71522045 61.34312701 -4.68359375 59.3046875 C-4.55839755 44.04486792 -7.10699847 28.93365127 -17.06640625 16.83203125 C-25.53672381 8.63494974 -34.94298093 6.71972675 -46.36303711 6.88110352 C-58.01230663 7.36031071 -66.3608598 11.37290757 -73.99609375 20.34765625 Z " fill="#47455A" transform="translate(4203.99609375,1376.65234375)"/>
<path d="M0 0 C15.17609173 12.3466509 23.09130379 30.42931922 25.33886719 49.67919922 C27.42004039 74.94836939 25.68172667 100.99841777 9.50390625 121.65625 C-1.52928448 134.55420536 -16.04515244 142.07862612 -32.96264648 143.65283203 C-52.16115191 145.13749829 -69.1632755 140.52531893 -84.38671875 128.55078125 C-98.55875569 115.64642651 -105.67546555 95.4748233 -106.63330078 76.7734375 C-107.47023857 50.83186778 -105.38090647 26.84749778 -87.77734375 6.375 C-82.88822604 1.17755955 -77.72387793 -2.55298522 -71.46484375 -5.9375 C-70.74941406 -6.33582031 -70.03398438 -6.73414063 -69.296875 -7.14453125 C-47.50549573 -18.06066308 -19.03434357 -14.56354839 0 0 Z M-68.23828125 20.44921875 C-81.22188928 35.68787449 -81.64398452 58.002335 -80.15625 77.00390625 C-78.56357821 90.74598586 -74.92336344 105.33565706 -63.71484375 114.5 C-53.91813789 120.95012123 -43.9137684 122.19354296 -32.46484375 121.0625 C-23.22722668 119.04743157 -15.69203982 114.55706401 -10.21484375 106.8125 C2.10372548 86.82829938 1.47303973 61.26581322 -3.46484375 39.0625 C-6.19993457 28.76568751 -10.94309521 20.20314093 -20.12890625 14.37109375 C-35.91430056 6.19900908 -55.38369568 7.98231116 -68.23828125 20.44921875 Z " fill="#47455A" transform="translate(1664.46484375,1373.9375)"/>
<path d="M0 0 C4.14581887 -0.02886751 8.29161216 -0.04675327 12.4375 -0.0625 C14.21350586 -0.07506836 14.21350586 -0.07506836 16.02539062 -0.08789062 C17.15009766 -0.09111328 18.27480469 -0.09433594 19.43359375 -0.09765625 C20.47572021 -0.10289307 21.51784668 -0.10812988 22.59155273 -0.11352539 C25 0 25 0 26 1 C26.11481081 4.14862623 26.16487749 7.27619446 26.17358398 10.42578125 C26.1836145 11.91124199 26.1836145 11.91124199 26.19384766 13.42671204 C26.20793792 15.58640289 26.21981916 17.74610898 26.22979546 19.90582275 C26.24616663 23.32773295 26.26940651 26.74953152 26.29469299 30.17138672 C26.36555018 39.90407766 26.42542057 49.63681619 26.47680664 59.36962891 C26.50868844 65.31659342 26.54999708 71.26343337 26.59700203 77.21029663 C26.61297861 79.47477971 26.62532014 81.73929155 26.63390923 84.0038147 C26.64613114 87.18235825 26.67031302 90.3606122 26.69702148 93.5390625 C26.69761063 94.46826004 26.69819977 95.39745758 26.69880676 96.35481262 C26.79263078 104.8273154 27.79409307 113.99263554 33 121 C40.67644432 127.4855494 49.2927134 127.76521403 59 127 C70.36411209 124.61812802 80.32091821 118.53709734 89 111 C89.66 111 90.32 111 91 111 C91 74.37 91 37.74 91 0 C99.25 0 107.5 0 116 0 C117 1 117 1 117.12304783 3.41880131 C117.12212604 4.50190806 117.12120424 5.58501482 117.12025452 6.70094299 C117.12231651 8.55832596 117.12231651 8.55832596 117.12442017 10.45323181 C117.12088056 11.83804345 117.11724574 13.22285485 117.11352539 14.60766602 C117.11324352 16.05607094 117.11340124 17.50447601 117.1139679 18.95288086 C117.11425589 22.89692314 117.1083588 26.84093527 117.10139394 30.78497052 C117.09516078 34.90229469 117.09455663 39.01961948 117.09336853 43.13694763 C117.0902551 50.93905862 117.08204156 58.74115567 117.07201904 66.54326051 C117.06085826 75.42340304 117.05534754 84.30354622 117.05032361 93.18369401 C117.03985896 111.45580414 117.02205887 129.72790044 117 148 C108.42 148 99.84 148 91 148 C90.67 143.38 90.34 138.76 90 134 C88.288125 135.340625 86.57625 136.68125 84.8125 138.0625 C70.68758328 148.80660899 56.32339285 154.70139092 38.375 152.3125 C27.50801652 150.34140037 17.95557768 146.38544792 11.0234375 137.453125 C2.57240827 124.72263841 -0.33927019 111.98064907 -0.22705078 96.8371582 C-0.22734283 95.78216629 -0.22763489 94.72717438 -0.22793579 93.64021301 C-0.22655546 90.19364864 -0.21105584 86.74730731 -0.1953125 83.30078125 C-0.19157776 80.89511737 -0.18873296 78.48945196 -0.18673706 76.08378601 C-0.17913696 69.7824781 -0.15951984 63.48126384 -0.1373291 57.17999268 C-0.11679231 50.73784654 -0.10771865 44.29568513 -0.09765625 37.85351562 C-0.07627033 25.23563736 -0.04256835 12.61782369 0 0 Z " fill="#47455B" transform="translate(1718,1365)"/>
<path d="M0 0 C8.25 0 16.5 0 25 0 C25.01981934 2.7229834 25.03963867 5.4459668 25.06005859 8.25146484 C25.12739888 17.31587587 25.20502787 26.38017866 25.28752708 35.44446373 C25.33716722 40.93235189 25.38349608 46.42022374 25.421875 51.90820312 C25.45914064 57.21865559 25.5056036 62.52895968 25.55806351 67.83928299 C25.57639094 69.85070784 25.5915758 71.86216423 25.60334396 73.87363815 C25.66236987 83.62688621 25.85425473 93.30832414 26.88134766 103.01416016 C26.95561666 103.73858496 27.02988567 104.46300976 27.10640526 105.20938683 C27.97825901 112.53256574 30.30919528 118.16757398 35.375 123.5 C43.36869824 128.06782757 52.36166907 128.06307433 61.2734375 126.3828125 C69.73901495 124.06656492 76.87407123 120.02841491 84 115 C85.03536896 114.35170731 86.07073792 113.70341461 87.13748169 113.03547668 C89.14494613 111.33035314 89.90788383 110.36501662 90.55781174 107.7896328 C90.78042991 104.95619556 90.80731804 102.17683526 90.77294922 99.3347168 C90.78357895 98.2610939 90.79420868 97.18747101 90.80516052 96.08131409 C90.8332388 92.53680711 90.8191439 88.99378633 90.8046875 85.44921875 C90.81593576 82.99012449 90.82981557 80.53104097 90.84622192 78.07197571 C90.88230806 71.60280428 90.88262716 65.13410499 90.87554932 58.66485596 C90.87463743 52.06229163 90.90748048 45.45990521 90.9375 38.85742188 C90.99140796 25.90484211 91.0044191 12.95269135 91 0 C99.25 0 107.5 0 116 0 C116 48.84 116 97.68 116 148 C107.75 148 99.5 148 91 148 C90.67 143.38 90.34 138.76 90 134 C89.04480469 134.73605469 88.08960937 135.47210937 87.10546875 136.23046875 C79.75158627 141.81365393 72.74734105 146.79654233 64 150 C62.88625 150.4125 61.7725 150.825 60.625 151.25 C47.48141789 153.96936182 32.55321137 153.87293862 20.87890625 146.36328125 C19.94884766 145.68845703 19.94884766 145.68845703 19 145 C18.39027344 144.58105469 17.78054687 144.16210938 17.15234375 143.73046875 C7.60583192 136.44994215 2.91872143 124.92089348 0.46168518 113.49716187 C-0.16814595 108.72633205 -0.13068741 104.02814238 -0.11352539 99.22119141 C-0.11367142 98.14742249 -0.11381744 97.07365356 -0.1139679 95.96734619 C-0.11327289 92.42873087 -0.10549976 88.8901686 -0.09765625 85.3515625 C-0.09579061 82.89391102 -0.09436739 80.43625916 -0.09336853 77.97860718 C-0.08955488 71.51779143 -0.07973441 65.05699825 -0.06866455 58.59619141 C-0.05842568 52.00032863 -0.0538656 45.40446219 -0.04882812 38.80859375 C-0.03811112 25.87238434 -0.02052362 12.93619758 0 0 Z " fill="#47455A" transform="translate(3445,1365)"/>
<path d="M0 0 C9.24 0 18.48 0 28 0 C30.23055741 5.97865104 32.45966902 11.95783319 34.6875 17.9375 C35.03348236 18.86573578 35.37946472 19.79397156 35.7359314 20.75033569 C40.15716693 32.61547663 44.55398591 44.48933407 48.91422844 56.37701988 C49.63036013 58.32925215 50.34692027 60.28132663 51.06361389 62.23335266 C51.53891874 63.52804241 52.01421478 64.8227354 52.48950195 66.11743164 C52.72374406 66.75550405 52.95798616 67.39357645 53.19932652 68.05098438 C54.37151815 71.24499121 55.54215981 74.4395527 56.70980835 77.63522339 C58.02877739 81.2436082 59.3519282 84.85043599 60.67578125 88.45703125 C61.0689151 89.53653046 61.46204895 90.61602966 61.86709595 91.72824097 C63.67429555 96.64097782 65.51233334 101.39063075 68 106 C68.20028305 105.45068817 68.4005661 104.90137634 68.60691833 104.3354187 C77.86088103 78.95746496 87.13062483 53.5856108 96.5 28.25 C96.86012177 27.27609314 97.22024353 26.30218628 97.59127808 25.29876709 C98.6125269 22.53756834 99.63422174 19.77653534 100.65625 17.015625 C100.95233658 16.21571136 101.24842316 15.41579773 101.55348206 14.59164429 C101.9727018 13.46008408 101.9727018 13.46008408 102.40039062 12.30566406 C102.63842407 11.66308655 102.87645752 11.02050903 103.1217041 10.35845947 C104.40838804 6.90336884 105.70544416 3.4521489 107 0 C115.91 0 124.82 0 134 0 C132.19775411 6.00748629 130.49894433 11.56374698 128.19921875 17.3203125 C127.93099304 17.99568054 127.66276733 18.67104858 127.38641357 19.36688232 C126.80066784 20.84050313 126.21304974 22.31338081 125.62374878 23.7855835 C124.30290982 27.08598027 122.9918996 30.39025883 121.68006897 33.69424438 C120.95569916 35.51846005 120.23086308 37.34249062 119.50559998 39.16635132 C115.24790106 49.87762626 111.03734334 60.60737278 106.82617188 71.33700562 C105.42497424 74.90691255 104.02313244 78.47656588 102.62109375 82.04614258 C98.79273339 91.7932718 94.96536095 101.54078875 91.13867188 111.28857422 C88.3220413 118.46338374 85.50501687 125.63803848 82.6875 132.8125 C82.23363922 133.96820496 81.77977844 135.12390991 81.31216431 136.31463623 C72.57617675 158.55684961 63.79835872 180.78239391 55 203 C46.09 203 37.18 203 28 203 C28.8055028 198.16698318 29.62962656 195.11270735 31.5546875 190.765625 C32.08320313 189.56542725 32.61171875 188.36522949 33.15625 187.12866211 C33.43726562 186.49717255 33.71828125 185.86568298 34.0078125 185.21505737 C34.88938359 183.2174066 35.74792625 181.21114834 36.6015625 179.20141602 C39.37455405 172.71235555 42.23963944 166.42596719 45.6953125 160.26171875 C50.23864051 151.84395953 54.28931793 144.1924565 51.828125 134.515625 C49.9241728 128.96427952 47.49051449 123.67068432 44.95265198 118.3865509 C41.09462986 110.29249297 38.09019919 101.88537911 34.99298096 93.47833252 C33.21034384 88.65924373 31.38730606 83.85551437 29.56640625 79.05078125 C29.01179718 77.5849057 29.01179718 77.5849057 28.44598389 76.0894165 C24.11708874 64.65304594 19.74914629 53.23162512 15.375 41.8125 C15.00349823 40.84233948 14.63199646 39.87217896 14.24923706 38.87261963 C13.17464631 36.0671639 12.09923679 33.26202375 11.0234375 30.45703125 C10.68528519 29.57470825 10.34713287 28.69238525 9.99873352 27.7833252 C8.32361841 23.41958804 6.63519613 19.06167681 4.92285156 14.71240234 C4.59475494 13.87714523 4.26665833 13.04188812 3.92861938 12.18132019 C3.30953821 10.60795863 2.68760091 9.03571686 2.06234741 7.46479797 C0 2.22148305 0 2.22148305 0 0 Z " fill="#47455A" transform="translate(4506,1365)"/>
<path d="M0 0 C8.91 0 17.82 0 27 0 C34.8770055 20.54871001 42.48705421 41.1850881 50.0090332 61.86621094 C53.97751996 72.77199416 57.96916591 83.66874262 62.0234375 94.54296875 C62.40811188 95.58012527 62.79278625 96.6172818 63.18911743 97.68586731 C63.54355927 98.63281967 63.8980011 99.57977203 64.26318359 100.55541992 C64.57532806 101.39215744 64.88747253 102.22889496 65.20907593 103.09098816 C65.84669331 104.97422891 65.84669331 104.97422891 67 106 C67.43530029 104.81414307 67.87060059 103.62828613 68.3190918 102.40649414 C77.73960386 76.74470687 87.1730926 51.08773797 96.625 25.4375 C96.86070583 24.79784931 97.09641167 24.15819862 97.3392601 23.49916458 C100.22577044 15.66596116 103.11282453 7.83295831 106 0 C114.91 0 123.82 0 133 0 C129.62512803 11.24957323 129.62512803 11.24957323 127.98901367 15.38720703 C127.61890671 16.32911896 127.24879974 17.27103088 126.86747742 18.2414856 C126.47163956 19.23687347 126.0758017 20.23226135 125.66796875 21.2578125 C125.03209587 22.87138138 125.03209587 22.87138138 124.38337708 24.51754761 C122.98846926 28.05484528 121.58794821 31.5898926 120.1875 35.125 C119.1976526 37.63114967 118.20912978 40.13782095 117.22070312 42.64453125 C115.42639784 47.19400034 113.63082813 51.74296611 111.8335743 56.29127121 C107.32331399 67.70594462 102.83718945 79.13007191 98.35256958 90.55484009 C96.54111526 95.16883548 94.72830598 99.782298 92.91551208 104.39576721 C89.13100565 114.02721899 85.3483003 123.65937553 81.5682373 133.29257202 C79.60179153 138.30387634 77.63462453 143.3148975 75.66748047 148.32592773 C74.74368336 150.67965331 73.82016691 153.03348907 72.89697266 155.38745117 C66.66225571 171.28447454 60.35559874 187.15086801 54 203 C45.09 203 36.18 203 27 203 C27.76292954 198.42242278 28.41441909 195.59312596 30.20898438 191.51708984 C30.89474548 189.94548599 30.89474548 189.94548599 31.59436035 188.34213257 C32.08915894 187.2263382 32.58395752 186.11054382 33.09375 184.9609375 C33.60047241 183.8025235 34.10719482 182.6441095 34.62927246 181.45059204 C35.97223408 178.38240191 37.32064104 175.316739 38.67230225 172.25238037 C40.57784312 167.93024101 42.47581 163.60479081 44.37072754 159.27798462 C45.37885964 156.97710884 46.39038965 154.67771828 47.40563965 152.37997437 C47.86281372 151.33854279 48.31998779 150.29711121 48.79101562 149.22412109 C49.19437134 148.30956146 49.59772705 147.39500183 50.01330566 146.45272827 C52.17959911 141.06774836 51.71859056 138.35099789 49.5546875 133.01171875 C49.13941803 131.94765305 49.13941803 131.94765305 48.71575928 130.86209106 C48.10435603 129.29919124 47.48785058 127.73828046 46.86700439 126.17910767 C45.49418006 122.73099831 44.14579625 119.27347336 42.7951355 115.81663513 C42.05533186 113.92432935 41.31418133 112.03254969 40.57180786 110.14125061 C35.83496656 98.06534277 31.2379946 85.93610946 26.625 73.8125 C21.41064716 60.11464045 16.18084222 46.42402 10.84375 32.7734375 C10.03822639 30.70858618 9.23272452 28.64372637 8.42724609 26.57885742 C6.9230462 22.72405395 5.40886901 18.87336959 3.88916016 15.0246582 C3.22002129 13.3121509 2.55121778 11.59951251 1.8828125 9.88671875 C1.57251099 9.10932343 1.26220947 8.3319281 0.94250488 7.53097534 C0.23617411 5.70904459 -0.39061545 3.85660585 -1 2 C-0.67 1.34 -0.34 0.68 0 0 Z " fill="#47455A" transform="translate(2932,1365)"/>
<path d="M0 0 C9.9 0 19.8 0 30 0 C32.145 3.733125 34.29 7.46625 36.5 11.3125 C42.58071523 21.87257705 48.7562304 32.3708004 54.98925781 42.84179688 C60.45809108 52.04485551 65.81883899 61.30618489 71.12890625 70.6015625 C71.71027344 71.61605469 72.29164062 72.63054687 72.890625 73.67578125 C73.39625977 74.56177002 73.90189453 75.44775879 74.42285156 76.3605957 C76.18513479 79.30982851 78.07424926 82.15537766 80 85 C85.65466902 75.59312051 91.2859138 66.1728016 96.88586426 56.73324585 C98.10149721 54.68426933 99.31779093 52.63568611 100.53417969 50.5871582 C104.54452095 43.83199946 108.549256 37.07359741 112.54296875 30.30859375 C113.60814124 28.50576888 114.6734279 26.70301152 115.73873901 24.90026855 C116.71400994 23.24845622 117.68724446 21.59544206 118.66040039 19.94238281 C119.85219639 17.92537457 121.0597748 15.91758658 122.28491211 13.9206543 C124.05559183 11.00579426 124.05559183 11.00579426 125.49829102 7.82348633 C127.09518477 4.69423754 128.43205583 2.40478749 131 0 C135.88137621 -1.32264947 140.42679257 -1.04920175 145.4375 -0.6875 C146.74138672 -0.63787109 148.04527344 -0.58824219 149.38867188 -0.53710938 C152.59817632 -0.40778868 155.79619957 -0.22741163 159 0 C157.81028605 3.86770256 156.47229029 7.19636773 154.33984375 10.6328125 C153.53389771 11.94318481 153.53389771 11.94318481 152.71166992 13.2800293 C152.12619385 14.21886963 151.54071777 15.15770996 150.9375 16.125 C149.66107494 18.19637838 148.38505075 20.26800382 147.109375 22.33984375 C146.10100586 23.97155518 146.10100586 23.97155518 145.07226562 25.63623047 C141.9396984 30.72111633 138.84408532 35.8283249 135.74899292 40.93606567 C133.95520946 43.89575938 132.15913871 46.85406445 130.36328125 49.8125 C130.00359756 50.40515152 129.64391388 50.99780304 129.27333069 51.6084137 C127.10023469 55.18875139 124.9255332 58.76810795 122.74940491 62.34660339 C121.30333247 64.72463587 119.85779049 67.10299063 118.41226196 69.48135376 C117.4415965 71.07795837 116.47021426 72.67412714 115.4987793 74.27026367 C114.52111823 75.87906829 113.54505248 77.48930268 112.60891724 79.12261963 C110.38875108 82.94266701 107.94313559 86.36889025 105.18823242 89.82641602 C90.62868062 109.230138 92.00333918 129.19443706 92.50646973 152.5100708 C92.60087149 157.65291012 92.60781481 162.79587803 92.62304688 167.93945312 C92.6651538 177.96203725 92.80922057 187.97914299 93 198 C84.09 198 75.18 198 66 198 C66.03778564 195.51001465 66.07557129 193.0200293 66.11450195 190.45458984 C66.23096138 182.13669266 66.2737921 173.81951573 66.28240681 165.50084496 C66.28980018 160.46707948 66.32037003 155.43589149 66.40795898 150.40283203 C67.43614421 119.29021463 67.43614421 119.29021463 53.72128296 92.23370361 C50.53845593 88.10335874 48.07799026 83.52201021 45.5 79 C44.41951174 77.16498846 43.33651722 75.33144821 42.25 73.5 C35.75 62.5 29.25 51.5 22.75 40.5 C22.21270264 39.59088867 21.67540527 38.68177734 21.12182617 37.74511719 C20.04850086 35.92839736 18.97573838 34.11134489 17.90356445 32.29394531 C15.04685368 27.45341969 12.17801152 22.62057623 9.29296875 17.796875 C8.38804688 16.27900391 8.38804688 16.27900391 7.46484375 14.73046875 C6.30042434 12.77782696 5.13257856 10.82722341 3.9609375 8.87890625 C3.44144531 8.00621094 2.92195313 7.13351562 2.38671875 6.234375 C1.92483154 5.46319336 1.46294434 4.69201172 0.98706055 3.89746094 C0 2 0 2 0 0 Z " fill="#48465B" transform="translate(1389,1316)"/>
<path d="M0 0 C8.58 0 17.16 0 26 0 C26 13.86 26 27.72 26 42 C29.23683594 41.98839844 32.47367188 41.97679687 35.80859375 41.96484375 C38.92944236 41.95705413 42.05028991 41.95097683 45.17114258 41.94506836 C47.34692873 41.94002692 49.52271147 41.93319393 51.69848633 41.92456055 C54.81853067 41.91248662 57.93853038 41.90676995 61.05859375 41.90234375 C62.03775253 41.89718246 63.01691132 41.89202118 64.02574158 41.88670349 C64.92659988 41.88662796 65.82745819 41.88655243 66.75561523 41.88647461 C67.55281479 41.884254 68.35001434 41.88203339 69.17137146 41.87974548 C71 42 71 42 72 43 C72.09880797 44.47652664 72.13079245 45.95767236 72.1328125 47.4375 C72.13410156 48.33210938 72.13539063 49.22671875 72.13671875 50.1484375 C72.13285156 51.08945313 72.12898438 52.03046875 72.125 53 C72.12886719 53.94101563 72.13273437 54.88203125 72.13671875 55.8515625 C72.13542969 56.74617188 72.13414062 57.64078125 72.1328125 58.5625 C72.13168457 59.38878906 72.13055664 60.21507812 72.12939453 61.06640625 C72 63 72 63 71 64 C69.58774954 64.0928726 68.17091066 64.11746772 66.75561523 64.11352539 C65.40432777 64.11341209 65.40432777 64.11341209 64.02574158 64.11329651 C63.04658279 64.10813522 62.06742401 64.10297394 61.05859375 64.09765625 C60.06118668 64.0962413 59.0637796 64.09482635 58.03614807 64.09336853 C54.83656876 64.08775114 51.63705831 64.07519571 48.4375 64.0625 C46.27408955 64.05748724 44.11067801 64.05292395 41.94726562 64.04882812 C36.63148675 64.03777607 31.31574829 64.02102104 26 64 C26.06136989 75.30122644 26.13859003 86.60222497 26.23571491 97.90320396 C26.28032924 103.15143658 26.31960493 108.39959317 26.34643555 113.64794922 C26.37255784 118.71852875 26.41302295 123.7888143 26.46318626 128.85921097 C26.47979479 130.78792268 26.49134634 132.71668518 26.49761391 134.64545822 C26.0372912 150.73703397 26.0372912 150.73703397 32.375 165 C38.82055519 169.91089919 46.89930663 170.57784079 54.79296875 169.68359375 C58.43160331 168.9844915 61.8588119 168.0470627 65.375 166.875 C68 166 68 166 72 166 C72 173.59 72 181.18 72 189 C62.01635279 191.72281287 54.35804517 193.19536192 44.25 193.25 C42.84234375 193.2809375 42.84234375 193.2809375 41.40625 193.3125 C30.04188242 193.37528656 20.99323323 190.13705705 12.375 182.75 C2.28957073 171.07213453 -0.18115916 159.03631757 -0.11352539 143.921875 C-0.11367142 143.05263901 -0.11381744 142.18340302 -0.1139679 141.28782654 C-0.11327651 138.44185813 -0.10552069 135.59595684 -0.09765625 132.75 C-0.09578932 130.76603226 -0.09436671 128.78206407 -0.09336853 126.7980957 C-0.08956504 121.59660552 -0.07975342 116.39514362 -0.06866455 111.19366455 C-0.05840366 105.87781151 -0.05386091 100.56195386 -0.04882812 95.24609375 C-0.03812908 84.8307168 -0.02107889 74.41536076 0 64 C-1.14339844 64.01160156 -2.28679688 64.02320313 -3.46484375 64.03515625 C-4.95572754 64.04453288 -6.44661309 64.05363321 -7.9375 64.0625 C-8.69224609 64.07087891 -9.44699219 64.07925781 -10.22460938 64.08789062 C-12.14994313 64.09652441 -14.07535581 64.05224333 -16 64 C-17.58937556 62.41062444 -17.12981143 60.76100154 -17.1328125 58.5625 C-17.13410156 57.66789062 -17.13539063 56.77328125 -17.13671875 55.8515625 C-17.13091797 54.44003906 -17.13091797 54.44003906 -17.125 53 C-17.12886719 52.05898437 -17.13273437 51.11796875 -17.13671875 50.1484375 C-17.13542969 49.25382812 -17.13414062 48.35921875 -17.1328125 47.4375 C-17.13112061 46.19806641 -17.13112061 46.19806641 -17.12939453 44.93359375 C-17 43 -17 43 -16 42 C-10.72 42 -5.44 42 0 42 C0 28.14 0 14.28 0 0 Z " fill="#47455A" transform="translate(2857,1323)"/>
<path d="M0 0 C8.25 0 16.5 0 25 0 C25 13.86 25 27.72 25 42 C40.18 42 55.36 42 71 42 C71 49.26 71 56.52 71 64 C55.82 64 40.64 64 25 64 C25.14931819 77.74809608 25.14931819 77.74809608 25.30664062 91.49609375 C25.37267109 97.11146659 25.43780717 102.72683891 25.49731445 108.34228516 C25.54540328 112.8746042 25.59775542 117.40685656 25.65294075 121.93909454 C25.67316472 123.65963305 25.69190778 125.38018968 25.70907402 127.10076141 C24.86391814 148.06757959 24.86391814 148.06757959 33.125 166.4375 C41.69672538 171.0960464 51.63626766 170.64058229 60.87890625 168.2578125 C62.57493928 167.73937445 64.26393918 167.19677621 65.94140625 166.62109375 C68 166 68 166 71 166 C71 173.59 71 181.18 71 189 C55.58044145 193.62586757 34.98512339 197.02520826 20 189 C9.03528406 182.24327177 3.64128678 173.20597148 0.45948792 160.91145325 C-0.17922103 156.86440178 -0.13060749 152.89427185 -0.11352539 148.8034668 C-0.11367142 147.88590103 -0.11381744 146.96833527 -0.1139679 146.02296448 C-0.11327275 142.99835829 -0.10549897 139.97381414 -0.09765625 136.94921875 C-0.09579066 134.84886204 -0.09436742 132.74850489 -0.09336853 130.64814758 C-0.08955449 125.1260355 -0.07973368 119.60394981 -0.06866455 114.08184814 C-0.05842652 108.44454302 -0.05386578 102.80723362 -0.04882812 97.16992188 C-0.03811043 86.11326967 -0.02104735 75.05663703 0 64 C-5.61 64 -11.22 64 -17 64 C-17 56.74 -17 49.48 -17 42 C-11.39 42 -5.78 42 0 42 C0 28.14 0 14.28 0 0 Z " fill="#47455A" transform="translate(4429,1323)"/>
<path d="M0 0 C8.58 0 17.16 0 26 0 C26.33 6.6 26.66 13.2 27 20 C29.0625 18.30875 31.125 16.6175 33.25 14.875 C45.35198576 5.24938414 59.15079033 -1.49304149 75 0 C76.32 0.33 77.64 0.66 79 1 C79 9.91 79 18.82 79 28 C75.473125 27.9175 71.94625 27.835 68.3125 27.75 C54.76714397 27.6454687 44.21780015 29.96026128 33 38 C31.9781662 38.64873581 30.9563324 39.29747162 29.90353394 39.96586609 C27.92381963 41.6425056 27.10421813 42.60345585 26.43962479 45.13219643 C26.22010485 47.83908115 26.19261755 50.49058488 26.22705078 53.20629883 C26.21642105 54.23115387 26.20579132 55.25600891 26.19483948 56.31192017 C26.16676977 59.69412223 26.18085355 63.0747658 26.1953125 66.45703125 C26.18406376 68.80402491 26.17018374 71.15100731 26.15377808 73.49797058 C26.11769774 79.67122956 26.11737208 85.84399372 26.12445068 92.01733398 C26.12536269 98.31828701 26.09251782 104.61905371 26.0625 110.91992188 C26.00859751 123.2800588 25.99558055 135.63974617 26 148 C17.42 148 8.84 148 0 148 C0 99.16 0 50.32 0 0 Z " fill="#47455A" transform="translate(2211,1365)"/>
<path d="M0 0 C1.5631897 0.00785522 1.5631897 0.00785522 3.15795898 0.01586914 C4.28266602 0.0190918 5.40737305 0.02231445 6.56616211 0.02563477 C7.75016602 0.03401367 8.93416992 0.04239258 10.15405273 0.05102539 C11.34192383 0.05553711 12.52979492 0.06004883 13.75366211 0.06469727 C16.69964685 0.07652853 19.64560589 0.09446463 22.59155273 0.11352539 C22.92155273 6.71352539 23.25155273 13.31352539 23.59155273 20.11352539 C25.40655273 18.62852539 27.22155273 17.14352539 29.09155273 15.61352539 C41.5387401 5.8257733 55.45944793 -1.08454111 71.59155273 0.11352539 C72.91155273 0.44352539 74.23155273 0.77352539 75.59155273 1.11352539 C75.59155273 10.02352539 75.59155273 18.93352539 75.59155273 28.11352539 C64.71655273 27.92602539 64.71655273 27.92602539 61.35375977 27.84326172 C51.82782158 27.76473732 44.19698094 29.89511834 35.84155273 34.48852539 C34.79483398 35.05313477 33.74811523 35.61774414 32.66967773 36.19946289 C26.47715116 39.55038398 26.47715116 39.55038398 23.03415298 45.24473 C22.81138602 47.95230297 22.78415834 50.60316825 22.81860352 53.31982422 C22.80797379 54.34467926 22.79734406 55.3695343 22.78639221 56.42544556 C22.7583225 59.80764762 22.77240629 63.18829119 22.78686523 66.57055664 C22.77561649 68.9175503 22.76173647 71.2645327 22.74533081 73.61149597 C22.70925048 79.78475495 22.70892481 85.95751911 22.71600342 92.13085938 C22.71691542 98.4318124 22.68407056 104.7325791 22.65405273 111.03344727 C22.60015024 123.39358419 22.58713328 135.75327156 22.59155273 148.11352539 C14.01155273 148.11352539 5.43155273 148.11352539 -3.40844727 148.11352539 C-3.43156495 128.96437851 -3.44942582 109.81523555 -3.46025944 90.66607761 C-3.46542266 81.77542713 -3.47246587 72.88478546 -3.48388672 63.99414062 C-3.49383274 56.24791312 -3.5003005 48.501692 -3.50253576 40.7554583 C-3.50384301 36.6513162 -3.50692973 32.54719237 -3.51417732 28.44305611 C-3.52093626 24.58457899 -3.52306449 20.72612774 -3.52155495 16.86764526 C-3.52183133 15.44740089 -3.52383721 14.0271557 -3.52765274 12.60691643 C-3.53258793 10.67610669 -3.5308453 8.74528324 -3.52870178 6.81446838 C-3.52962358 5.73136163 -3.53054537 4.64825487 -3.53149509 3.5323267 C-3.36592368 0.2776219 -3.25529126 0.15344252 0 0 Z " fill="#48455A" transform="translate(4259.408447265625,1364.886474609375)"/>
<path d="M0 0 C1.5631897 0.00785522 1.5631897 0.00785522 3.15795898 0.01586914 C4.28266602 0.0190918 5.40737305 0.02231445 6.56616211 0.02563477 C7.75016602 0.03401367 8.93416992 0.04239258 10.15405273 0.05102539 C11.34192383 0.05553711 12.52979492 0.06004883 13.75366211 0.06469727 C16.69964685 0.07652853 19.64560589 0.09446463 22.59155273 0.11352539 C22.92155273 6.71352539 23.25155273 13.31352539 23.59155273 20.11352539 C25.40655273 18.62852539 27.22155273 17.14352539 29.09155273 15.61352539 C41.5387401 5.8257733 55.45944793 -1.08454111 71.59155273 0.11352539 C72.91155273 0.44352539 74.23155273 0.77352539 75.59155273 1.11352539 C75.59155273 10.02352539 75.59155273 18.93352539 75.59155273 28.11352539 C64.71655273 27.92602539 64.71655273 27.92602539 61.35375977 27.84326172 C51.82782158 27.76473732 44.19698094 29.89511834 35.84155273 34.48852539 C34.79483398 35.05313477 33.74811523 35.61774414 32.66967773 36.19946289 C26.47715116 39.55038398 26.47715116 39.55038398 23.03415298 45.24473 C22.81138602 47.95230297 22.78415834 50.60316825 22.81860352 53.31982422 C22.80797379 54.34467926 22.79734406 55.3695343 22.78639221 56.42544556 C22.7583225 59.80764762 22.77240629 63.18829119 22.78686523 66.57055664 C22.77561649 68.9175503 22.76173647 71.2645327 22.74533081 73.61149597 C22.70925048 79.78475495 22.70892481 85.95751911 22.71600342 92.13085938 C22.71691542 98.4318124 22.68407056 104.7325791 22.65405273 111.03344727 C22.60015024 123.39358419 22.58713328 135.75327156 22.59155273 148.11352539 C14.01155273 148.11352539 5.43155273 148.11352539 -3.40844727 148.11352539 C-3.43156495 128.96437851 -3.44942582 109.81523555 -3.46025944 90.66607761 C-3.46542266 81.77542713 -3.47246587 72.88478546 -3.48388672 63.99414062 C-3.49383274 56.24791312 -3.5003005 48.501692 -3.50253576 40.7554583 C-3.50384301 36.6513162 -3.50692973 32.54719237 -3.51417732 28.44305611 C-3.52093626 24.58457899 -3.52306449 20.72612774 -3.52155495 16.86764526 C-3.52183133 15.44740089 -3.52383721 14.0271557 -3.52765274 12.60691643 C-3.53258793 10.67610669 -3.5308453 8.74528324 -3.52870178 6.81446838 C-3.52962358 5.73136163 -3.53054537 4.64825487 -3.53149509 3.5323267 C-3.36592368 0.2776219 -3.25529126 0.15344252 0 0 Z " fill="#48455A" transform="translate(3599.408447265625,1364.886474609375)"/>
<path d="M0 0 C8.58 0 17.16 0 26 0 C26.33 6.6 26.66 13.2 27 20 C28.918125 18.47375 30.83625 16.9475 32.8125 15.375 C45.54000928 5.46815593 58.58312948 -0.92107854 75 0 C76.32 0.33 77.64 0.66 79 1 C79 9.91 79 18.82 79 28 C75.473125 27.9175 71.94625 27.835 68.3125 27.75 C53.94428114 27.64825492 43.78410661 30.38853748 32 39 C31.13832718 39.48857483 30.27665436 39.97714966 29.38887024 40.48052979 C25.73898884 44.32995087 26.29487601 47.96707222 26.34057617 53.09277344 C26.32485062 54.62983696 26.32485062 54.62983696 26.30880737 56.19795227 C26.28000317 59.58539916 26.28635553 62.97182731 26.29296875 66.359375 C26.27985705 68.70779709 26.26455446 71.05620788 26.24714661 73.40460205 C26.20722251 79.5860181 26.19710133 85.76713965 26.19311523 91.94866943 C26.18379785 98.25623552 26.14639301 104.56362754 26.11132812 110.87109375 C26.04667642 123.24742853 26.01609386 135.6235067 26 148 C17.42 148 8.84 148 0 148 C0 99.16 0 50.32 0 0 Z " fill="#47455A" transform="translate(3933,1365)"/>
<path d="M0 0 C8.25 0 16.5 0 25 0 C26.54950268 1.54950268 26.21655193 3.09990594 26.31640625 5.25390625 C26.35830078 6.10791016 26.40019531 6.96191406 26.44335938 7.84179688 C26.48267578 8.73962891 26.52199219 9.63746094 26.5625 10.5625 C26.60568359 11.46419922 26.64886719 12.36589844 26.69335938 13.29492188 C26.79978142 15.52978485 26.90179988 17.76476308 27 20 C27.65484375 19.43152344 28.3096875 18.86304688 28.984375 18.27734375 C42.28406703 7.02520318 56.11126807 -1.0577685 74 0 C75.65 0.33 77.3 0.66 79 1 C79 9.91 79 18.82 79 28 C75.473125 27.9175 71.94625 27.835 68.3125 27.75 C54.76714397 27.6454687 44.21780015 29.96026128 33 38 C31.9781662 38.64873581 30.9563324 39.29747162 29.90353394 39.96586609 C27.92381963 41.6425056 27.10421813 42.60345585 26.43962479 45.13219643 C26.22010485 47.83908115 26.19261755 50.49058488 26.22705078 53.20629883 C26.21642105 54.23115387 26.20579132 55.25600891 26.19483948 56.31192017 C26.16676977 59.69412223 26.18085355 63.0747658 26.1953125 66.45703125 C26.18406376 68.80402491 26.17018374 71.15100731 26.15377808 73.49797058 C26.11769774 79.67122956 26.11737208 85.84399372 26.12445068 92.01733398 C26.12536269 98.31828701 26.09251782 104.61905371 26.0625 110.91992188 C26.00859751 123.2800588 25.99558055 135.63974617 26 148 C17.42 148 8.84 148 0 148 C0 99.16 0 50.32 0 0 Z " fill="#47455A" transform="translate(2756,1365)"/>
<path d="M0 0 C8.25 0 16.5 0 25 0 C25.33 6.93 25.66 13.86 26 21 C27.216875 19.845 28.43375 18.69 29.6875 17.5 C41.9562584 6.62015765 55.34990418 -0.07346536 71.7890625 -0.1328125 C74 0 74 0 79 1 C79 9.91 79 18.82 79 28 C75.2875 27.9175 71.575 27.835 67.75 27.75 C52.19863084 27.64495129 40.87845949 31.53465188 28.3730011 40.98527527 C24.98061398 45.29505555 25.29229429 48.77170176 25.34057617 54.11450195 C25.32485062 55.63715416 25.32485062 55.63715416 25.30880737 57.19056702 C25.28004536 60.54011558 25.28635059 63.88863126 25.29296875 67.23828125 C25.27985449 69.56285397 25.26455112 71.88741528 25.24714661 74.21195984 C25.20725242 80.32595821 25.19710324 86.43965879 25.19311523 92.55377197 C25.18379224 98.79440368 25.14638384 105.0348598 25.11132812 111.27539062 C25.04670683 123.51696013 25.01609965 135.7582704 25 148 C16.75 148 8.5 148 0 148 C0 99.16 0 50.32 0 0 Z " fill="#47455A" transform="translate(1874,1365)"/>
<path d="M0 0 C8.58 0 17.16 0 26 0 C26.02311763 19.27953071 26.04097853 38.55905752 26.05181217 57.83859921 C26.05697541 66.78978382 26.06401863 75.74095968 26.07543945 84.69213867 C26.08538545 92.49110388 26.09185322 100.29006276 26.09408849 108.08903414 C26.09539575 112.22112186 26.09848251 116.35319144 26.10573006 120.48527336 C26.11248894 124.37001526 26.11461723 128.25473146 26.11310768 132.13947868 C26.11338407 133.56939839 26.11538998 134.99931891 26.11920547 136.42923355 C26.12414059 138.37318051 26.12239805 140.31714109 26.12025452 142.26109314 C26.12117631 143.35157424 26.1220981 144.44205534 26.12304783 145.56558132 C26 148 26 148 25 149 C16.75 149 8.5 149 0 149 C0 99.83 0 50.66 0 0 Z " fill="#47455A" transform="translate(4360,1365)"/>
<path d="M0 0 C8.25 0 16.5 0 25 0 C26.76690559 1.76690559 26.12614918 4.29988487 26.12698364 6.69421387 C26.12980347 7.93102402 26.13262329 9.16783417 26.13552856 10.44212341 C26.13358397 11.82534804 26.13153578 13.20857253 26.12939453 14.59179688 C26.13074853 16.03857975 26.13252845 17.48536229 26.13470459 18.93214417 C26.13927909 22.87211762 26.1374893 26.81206502 26.1343255 30.75203896 C26.13180199 34.86622821 26.13413942 38.98041516 26.13571167 43.09460449 C26.13753339 50.00496829 26.13512699 56.91532142 26.13037109 63.82568359 C26.12492847 71.82649767 26.12669112 79.82728627 26.1321975 87.82809973 C26.13672856 94.68498119 26.13737921 101.54185496 26.13475883 108.39873743 C26.13319602 112.49950739 26.13300241 116.60026535 26.13629532 120.70103455 C26.13917393 124.55542639 26.13719853 128.40978524 26.13140106 132.26417351 C26.13007341 133.68280418 26.13046767 135.10143762 26.13266373 136.52006721 C26.13537499 138.44863921 26.13138062 140.37721724 26.12698364 142.30578613 C26.12660662 143.38759407 26.12622959 144.46940201 26.12584114 145.583992 C26 148 26 148 25 149 C16.75 149 8.5 149 0 149 C0 99.83 0 50.66 0 0 Z " fill="#47455A" transform="translate(4037,1365)"/>
<path d="M0 0 C11.22 0 22.44 0 34 0 C30.62528889 10.12413332 30.62528889 10.12413332 28.70678711 14.59790039 C28.27881332 15.60087662 27.85083954 16.60385284 27.40989685 17.63722229 C26.95365433 18.6966655 26.4974118 19.7561087 26.02734375 20.84765625 C25.30352257 22.54105385 25.30352257 22.54105385 24.56507874 24.2686615 C23.02590707 27.86805462 21.4819594 31.46537303 19.9375 35.0625 C17.92412883 39.76101231 15.91280705 44.46039902 13.90234375 49.16015625 C13.41091888 50.30819733 12.91949402 51.4562384 12.41317749 52.6390686 C7.53160589 64.06067187 2.75337216 75.5245548 -2 87 C-8.93 87 -15.86 87 -23 87 C-20.37190326 75.60547301 -17.53950112 64.30502373 -14.453125 53.02734375 C-14.03260368 51.48229251 -13.61234125 49.93717078 -13.19232178 48.39198303 C-12.10332783 44.38840857 -11.01089764 40.38578021 -9.91766357 36.38336182 C-8.59747265 31.54708693 -7.28170375 26.70960721 -5.96516418 21.87233734 C-3.9800993 14.58064699 -1.98954331 7.29047631 0 0 Z " fill="#47455A" transform="translate(3100,1475)"/>
<path d="M0 0 C9.57 0 19.14 0 29 0 C29 8.91 29 17.82 29 27 C19.43 27 9.86 27 0 27 C0 18.09 0 9.18 0 0 Z " fill="#48465A" transform="translate(4035,1315)"/>
<path d="M0 0 C9.57 0 19.14 0 29 0 C29 8.91 29 17.82 29 27 C25.0306345 27.02291487 21.0614368 27.04284015 17.09204102 27.05493164 C15.74079614 27.05997057 14.38955674 27.06680177 13.03833008 27.07543945 C11.09979566 27.08752419 9.161222 27.09269828 7.22265625 27.09765625 C5.47094116 27.10551147 5.47094116 27.10551147 3.68383789 27.11352539 C1 27 1 27 0 26 C-0.08748207 24.07332493 -0.10697334 22.14348139 -0.09765625 20.21484375 C-0.09515869 19.16159912 -0.09266113 18.10835449 -0.09008789 17.02319336 C-0.08098389 15.67491455 -0.07187988 14.32663574 -0.0625 12.9375 C-0.041875 8.668125 -0.02125 4.39875 0 0 Z " fill="#48455A" transform="translate(4358,1315)"/>
</svg>
